G04 #@! TF.GenerationSoftware,KiCad,Pcbnew,5.1.12-84ad8e8a86~92~ubuntu18.04.1*
G04 #@! TF.CreationDate,2022-04-11T08:29:57+03:00*
G04 #@! TF.ProjectId,soic,736f6963-2e6b-4696-9361-645f70636258,rev?*
G04 #@! TF.SameCoordinates,Original*
G04 #@! TF.FileFunction,Legend,Top*
G04 #@! TF.FilePolarity,Positive*
%FSLAX46Y46*%
G04 Gerber Fmt 4.6, Leading zero omitted, Abs format (unit mm)*
G04 Created by KiCad (PCBNEW 5.1.12-84ad8e8a86~92~ubuntu18.04.1) date 2022-04-11 08:29:57*
%MOMM*%
%LPD*%
G01*
G04 APERTURE LIST*
%ADD10C,0.150000*%
%ADD11C,0.120000*%
G04 APERTURE END LIST*
D10*
X-7861428Y-129580D02*
X-7861428Y870419D01*
X-7861428Y394228D02*
X-7290000Y394228D01*
X-7290000Y-129580D02*
X-7290000Y870419D01*
X-6385238Y-129580D02*
X-6385238Y394228D01*
X-6432857Y489466D01*
X-6528095Y537085D01*
X-6718571Y537085D01*
X-6813809Y489466D01*
X-6385238Y-81961D02*
X-6480476Y-129580D01*
X-6718571Y-129580D01*
X-6813809Y-81961D01*
X-6861428Y13276D01*
X-6861428Y108514D01*
X-6813809Y203752D01*
X-6718571Y251371D01*
X-6480476Y251371D01*
X-6385238Y298990D01*
X-5480476Y-81961D02*
X-5575714Y-129580D01*
X-5766190Y-129580D01*
X-5861428Y-81961D01*
X-5909047Y-34342D01*
X-5956666Y60895D01*
X-5956666Y346609D01*
X-5909047Y441847D01*
X-5861428Y489466D01*
X-5766190Y537085D01*
X-5575714Y537085D01*
X-5480476Y489466D01*
X-5051904Y-129580D02*
X-5051904Y870419D01*
X-4956666Y251371D02*
X-4670952Y-129580D01*
X-4670952Y537085D02*
X-5051904Y156133D01*
X-4099523Y-129580D02*
X-4194761Y-81961D01*
X-4242380Y13276D01*
X-4242380Y870419D01*
X-3290000Y-129580D02*
X-3290000Y394228D01*
X-3337619Y489466D01*
X-3432857Y537085D01*
X-3623333Y537085D01*
X-3718571Y489466D01*
X-3290000Y-81961D02*
X-3385238Y-129580D01*
X-3623333Y-129580D01*
X-3718571Y-81961D01*
X-3766190Y13276D01*
X-3766190Y108514D01*
X-3718571Y203752D01*
X-3623333Y251371D01*
X-3385238Y251371D01*
X-3290000Y298990D01*
X-2813809Y-129580D02*
X-2813809Y870419D01*
X-2813809Y489466D02*
X-2718571Y537085D01*
X-2528095Y537085D01*
X-2432857Y489466D01*
X-2385238Y441847D01*
X-2337619Y346609D01*
X-2337619Y60895D01*
X-2385238Y-34342D01*
X-2432857Y-81961D01*
X-2528095Y-129580D01*
X-2718571Y-129580D01*
X-2813809Y-81961D01*
X-1147142Y-129580D02*
X-1147142Y870419D01*
X-1147142Y394228D02*
X-575714Y394228D01*
X-575714Y-129580D02*
X-575714Y870419D01*
X281428Y-81961D02*
X186190Y-129580D01*
X-4285Y-129580D01*
X-99523Y-81961D01*
X-147142Y13276D01*
X-147142Y394228D01*
X-99523Y489466D01*
X-4285Y537085D01*
X186190Y537085D01*
X281428Y489466D01*
X329047Y394228D01*
X329047Y298990D01*
X-147142Y203752D01*
X900476Y-129580D02*
X805238Y-81961D01*
X757619Y13276D01*
X757619Y870419D01*
X1233809Y-81961D02*
X1329047Y-129580D01*
X1519523Y-129580D01*
X1614761Y-81961D01*
X1662380Y13276D01*
X1662380Y60895D01*
X1614761Y156133D01*
X1519523Y203752D01*
X1376666Y203752D01*
X1281428Y251371D01*
X1233809Y346609D01*
X1233809Y394228D01*
X1281428Y489466D01*
X1376666Y537085D01*
X1519523Y537085D01*
X1614761Y489466D01*
X2090952Y-129580D02*
X2090952Y537085D01*
X2090952Y870419D02*
X2043333Y822800D01*
X2090952Y775180D01*
X2138571Y822800D01*
X2090952Y870419D01*
X2090952Y775180D01*
X2567142Y537085D02*
X2567142Y-129580D01*
X2567142Y441847D02*
X2614761Y489466D01*
X2709999Y537085D01*
X2852857Y537085D01*
X2948095Y489466D01*
X2995714Y394228D01*
X2995714Y-129580D01*
X3471904Y-129580D02*
X3471904Y870419D01*
X3567142Y251371D02*
X3852857Y-129580D01*
X3852857Y537085D02*
X3471904Y156133D01*
X4281428Y-129580D02*
X4281428Y537085D01*
X4281428Y870419D02*
X4233809Y822800D01*
X4281428Y775180D01*
X4329047Y822800D01*
X4281428Y870419D01*
X4281428Y775180D01*
D11*
G04 #@! TO.C,J2*
X8160000Y9502800D02*
X6040000Y9502800D01*
X8160000Y3442800D02*
X8160000Y9502800D01*
X6040000Y3442800D02*
X6040000Y9502800D01*
X8160000Y3442800D02*
X6040000Y3442800D01*
X8160000Y2442800D02*
X8160000Y1382800D01*
X8160000Y1382800D02*
X7100000Y1382800D01*
G04 #@! TO.C,J1*
X-7980000Y3437800D02*
X-7177530Y3437800D01*
X-6562470Y3437800D02*
X-5760000Y3437800D01*
X-7980000Y7182800D02*
X-7980000Y3437800D01*
X-5760000Y7182800D02*
X-5760000Y3437800D01*
X-7980000Y7182800D02*
X-7433471Y7182800D01*
X-6306529Y7182800D02*
X-5760000Y7182800D01*
X-7980000Y7942800D02*
X-7980000Y8702800D01*
X-7980000Y8702800D02*
X-6870000Y8702800D01*
G04 #@! TO.C,U1*
X-585000Y3477800D02*
X1365000Y3477800D01*
X-585000Y3477800D02*
X-2535000Y3477800D01*
X-585000Y8597800D02*
X1365000Y8597800D01*
X-585000Y8597800D02*
X-4035000Y8597800D01*
G04 #@! TO.C,H2*
D10*
X11368095Y8490419D02*
X11368095Y9490419D01*
X11368095Y9014228D02*
X11939523Y9014228D01*
X11939523Y8490419D02*
X11939523Y9490419D01*
X12368095Y9395180D02*
X12415714Y9442800D01*
X12510952Y9490419D01*
X12749047Y9490419D01*
X12844285Y9442800D01*
X12891904Y9395180D01*
X12939523Y9299942D01*
X12939523Y9204704D01*
X12891904Y9061847D01*
X12320476Y8490419D01*
X12939523Y8490419D01*
G04 #@! TO.C,H1*
X-12631904Y8490419D02*
X-12631904Y9490419D01*
X-12631904Y9014228D02*
X-12060476Y9014228D01*
X-12060476Y8490419D02*
X-12060476Y9490419D01*
X-11060476Y8490419D02*
X-11631904Y8490419D01*
X-11346190Y8490419D02*
X-11346190Y9490419D01*
X-11441428Y9347561D01*
X-11536666Y9252323D01*
X-11631904Y9204704D01*
G04 #@! TO.C,J2*
X6766666Y11030419D02*
X6766666Y10316133D01*
X6719047Y10173276D01*
X6623809Y10078038D01*
X6480952Y10030419D01*
X6385714Y10030419D01*
X7195238Y10935180D02*
X7242857Y10982800D01*
X7338095Y11030419D01*
X7576190Y11030419D01*
X7671428Y10982800D01*
X7719047Y10935180D01*
X7766666Y10839942D01*
X7766666Y10744704D01*
X7719047Y10601847D01*
X7147619Y10030419D01*
X7766666Y10030419D01*
G04 #@! TO.C,J1*
X-7453333Y10240419D02*
X-7453333Y9526133D01*
X-7500952Y9383276D01*
X-7596190Y9288038D01*
X-7739047Y9240419D01*
X-7834285Y9240419D01*
X-6453333Y9240419D02*
X-7024761Y9240419D01*
X-6739047Y9240419D02*
X-6739047Y10240419D01*
X-6834285Y10097561D01*
X-6929523Y10002323D01*
X-7024761Y9954704D01*
G04 #@! TO.C,U1*
X-1346904Y9985419D02*
X-1346904Y9175895D01*
X-1299285Y9080657D01*
X-1251666Y9033038D01*
X-1156428Y8985419D01*
X-965952Y8985419D01*
X-870714Y9033038D01*
X-823095Y9080657D01*
X-775476Y9175895D01*
X-775476Y9985419D01*
X224523Y8985419D02*
X-346904Y8985419D01*
X-61190Y8985419D02*
X-61190Y9985419D01*
X-156428Y9842561D01*
X-251666Y9747323D01*
X-346904Y9699704D01*
G04 #@! TD*
M02*
