G04 #@! TF.GenerationSoftware,KiCad,Pcbnew,6.0.4-6f826c9f35~116~ubuntu18.04.1*
G04 #@! TF.CreationDate,2022-09-06T13:01:24+03:00*
G04 #@! TF.ProjectId,soic,736f6963-2e6b-4696-9361-645f70636258,rev?*
G04 #@! TF.SameCoordinates,Original*
G04 #@! TF.FileFunction,Legend,Top*
G04 #@! TF.FilePolarity,Positive*
%FSLAX46Y46*%
G04 Gerber Fmt 4.6, Leading zero omitted, Abs format (unit mm)*
G04 Created by KiCad (PCBNEW 6.0.4-6f826c9f35~116~ubuntu18.04.1) date 2022-09-06 13:01:24*
%MOMM*%
%LPD*%
G01*
G04 APERTURE LIST*
%ADD10C,0.120000*%
%ADD11C,0.150000*%
G04 APERTURE END LIST*
D10*
X15000000Y11004800D02*
X15000000Y10504800D01*
X14500000Y11004800D02*
X15000000Y11004800D01*
X-15000000Y4800D02*
X-14500000Y4800D01*
X-15000000Y504800D02*
X-15000000Y4800D01*
D11*
X-7861428Y552419D02*
X-7861428Y1552419D01*
X-7861428Y1076228D02*
X-7290000Y1076228D01*
X-7290000Y552419D02*
X-7290000Y1552419D01*
X-6385238Y552419D02*
X-6385238Y1076228D01*
X-6432857Y1171466D01*
X-6528095Y1219085D01*
X-6718571Y1219085D01*
X-6813809Y1171466D01*
X-6385238Y600038D02*
X-6480476Y552419D01*
X-6718571Y552419D01*
X-6813809Y600038D01*
X-6861428Y695276D01*
X-6861428Y790514D01*
X-6813809Y885752D01*
X-6718571Y933371D01*
X-6480476Y933371D01*
X-6385238Y980990D01*
X-5480476Y600038D02*
X-5575714Y552419D01*
X-5766190Y552419D01*
X-5861428Y600038D01*
X-5909047Y647657D01*
X-5956666Y742895D01*
X-5956666Y1028609D01*
X-5909047Y1123847D01*
X-5861428Y1171466D01*
X-5766190Y1219085D01*
X-5575714Y1219085D01*
X-5480476Y1171466D01*
X-5051904Y552419D02*
X-5051904Y1552419D01*
X-4956666Y933371D02*
X-4670952Y552419D01*
X-4670952Y1219085D02*
X-5051904Y838133D01*
X-4099523Y552419D02*
X-4194761Y600038D01*
X-4242380Y695276D01*
X-4242380Y1552419D01*
X-3290000Y552419D02*
X-3290000Y1076228D01*
X-3337619Y1171466D01*
X-3432857Y1219085D01*
X-3623333Y1219085D01*
X-3718571Y1171466D01*
X-3290000Y600038D02*
X-3385238Y552419D01*
X-3623333Y552419D01*
X-3718571Y600038D01*
X-3766190Y695276D01*
X-3766190Y790514D01*
X-3718571Y885752D01*
X-3623333Y933371D01*
X-3385238Y933371D01*
X-3290000Y980990D01*
X-2813809Y552419D02*
X-2813809Y1552419D01*
X-2813809Y1171466D02*
X-2718571Y1219085D01*
X-2528095Y1219085D01*
X-2432857Y1171466D01*
X-2385238Y1123847D01*
X-2337619Y1028609D01*
X-2337619Y742895D01*
X-2385238Y647657D01*
X-2432857Y600038D01*
X-2528095Y552419D01*
X-2718571Y552419D01*
X-2813809Y600038D01*
X-1147142Y552419D02*
X-1147142Y1552419D01*
X-1147142Y1076228D02*
X-575714Y1076228D01*
X-575714Y552419D02*
X-575714Y1552419D01*
X281428Y600038D02*
X186190Y552419D01*
X-4285Y552419D01*
X-99523Y600038D01*
X-147142Y695276D01*
X-147142Y1076228D01*
X-99523Y1171466D01*
X-4285Y1219085D01*
X186190Y1219085D01*
X281428Y1171466D01*
X329047Y1076228D01*
X329047Y980990D01*
X-147142Y885752D01*
X900476Y552419D02*
X805238Y600038D01*
X757619Y695276D01*
X757619Y1552419D01*
X1233809Y600038D02*
X1329047Y552419D01*
X1519523Y552419D01*
X1614761Y600038D01*
X1662380Y695276D01*
X1662380Y742895D01*
X1614761Y838133D01*
X1519523Y885752D01*
X1376666Y885752D01*
X1281428Y933371D01*
X1233809Y1028609D01*
X1233809Y1076228D01*
X1281428Y1171466D01*
X1376666Y1219085D01*
X1519523Y1219085D01*
X1614761Y1171466D01*
X2090952Y552419D02*
X2090952Y1219085D01*
X2090952Y1552419D02*
X2043333Y1504800D01*
X2090952Y1457180D01*
X2138571Y1504800D01*
X2090952Y1552419D01*
X2090952Y1457180D01*
X2567142Y1219085D02*
X2567142Y552419D01*
X2567142Y1123847D02*
X2614761Y1171466D01*
X2709999Y1219085D01*
X2852857Y1219085D01*
X2948095Y1171466D01*
X2995714Y1076228D01*
X2995714Y552419D01*
X3471904Y552419D02*
X3471904Y1552419D01*
X3567142Y933371D02*
X3852857Y552419D01*
X3852857Y1219085D02*
X3471904Y838133D01*
X4281428Y552419D02*
X4281428Y1219085D01*
X4281428Y1552419D02*
X4233809Y1504800D01*
X4281428Y1457180D01*
X4329047Y1504800D01*
X4281428Y1552419D01*
X4281428Y1457180D01*
G04 #@! TO.C,J2*
X7286666Y842419D02*
X7286666Y128133D01*
X7239047Y-14723D01*
X7143809Y-109961D01*
X7000952Y-157580D01*
X6905714Y-157580D01*
X7715238Y747180D02*
X7762857Y794800D01*
X7858095Y842419D01*
X8096190Y842419D01*
X8191428Y794800D01*
X8239047Y747180D01*
X8286666Y651942D01*
X8286666Y556704D01*
X8239047Y413847D01*
X7667619Y-157580D01*
X8286666Y-157580D01*
G04 #@! TO.C,R2*
X4278333Y7807419D02*
X3945000Y8283609D01*
X3706904Y7807419D02*
X3706904Y8807419D01*
X4087857Y8807419D01*
X4183095Y8759800D01*
X4230714Y8712180D01*
X4278333Y8616942D01*
X4278333Y8474085D01*
X4230714Y8378847D01*
X4183095Y8331228D01*
X4087857Y8283609D01*
X3706904Y8283609D01*
X4659285Y8712180D02*
X4706904Y8759800D01*
X4802142Y8807419D01*
X5040238Y8807419D01*
X5135476Y8759800D01*
X5183095Y8712180D01*
X5230714Y8616942D01*
X5230714Y8521704D01*
X5183095Y8378847D01*
X4611666Y7807419D01*
X5230714Y7807419D01*
G04 #@! TO.C,R1*
X4278333Y5902419D02*
X3945000Y6378609D01*
X3706904Y5902419D02*
X3706904Y6902419D01*
X4087857Y6902419D01*
X4183095Y6854800D01*
X4230714Y6807180D01*
X4278333Y6711942D01*
X4278333Y6569085D01*
X4230714Y6473847D01*
X4183095Y6426228D01*
X4087857Y6378609D01*
X3706904Y6378609D01*
X5230714Y5902419D02*
X4659285Y5902419D01*
X4945000Y5902419D02*
X4945000Y6902419D01*
X4849761Y6759561D01*
X4754523Y6664323D01*
X4659285Y6616704D01*
G04 #@! TO.C,J1*
X-9583333Y8552419D02*
X-9583333Y7838133D01*
X-9630952Y7695276D01*
X-9726190Y7600038D01*
X-9869047Y7552419D01*
X-9964285Y7552419D01*
X-8583333Y7552419D02*
X-9154761Y7552419D01*
X-8869047Y7552419D02*
X-8869047Y8552419D01*
X-8964285Y8409561D01*
X-9059523Y8314323D01*
X-9154761Y8266704D01*
G04 #@! TO.C,U1*
X-1346904Y9985419D02*
X-1346904Y9175895D01*
X-1299285Y9080657D01*
X-1251666Y9033038D01*
X-1156428Y8985419D01*
X-965952Y8985419D01*
X-870714Y9033038D01*
X-823095Y9080657D01*
X-775476Y9175895D01*
X-775476Y9985419D01*
X224523Y8985419D02*
X-346904Y8985419D01*
X-61190Y8985419D02*
X-61190Y9985419D01*
X-156428Y9842561D01*
X-251666Y9747323D01*
X-346904Y9699704D01*
D10*
G04 #@! TO.C,J2*
X6560000Y3354800D02*
X6560000Y9414800D01*
X8680000Y3354800D02*
X6560000Y3354800D01*
X8680000Y1294800D02*
X7620000Y1294800D01*
X8680000Y9414800D02*
X6560000Y9414800D01*
X8680000Y2354800D02*
X8680000Y1294800D01*
X8680000Y3354800D02*
X8680000Y9414800D01*
G04 #@! TO.C,J1*
X-7980000Y8702800D02*
X-6870000Y8702800D01*
X-7980000Y7942800D02*
X-7980000Y8702800D01*
X-6306529Y7182800D02*
X-5760000Y7182800D01*
X-7980000Y7182800D02*
X-7433471Y7182800D01*
X-5760000Y7182800D02*
X-5760000Y3437800D01*
X-7980000Y7182800D02*
X-7980000Y3437800D01*
X-6562470Y3437800D02*
X-5760000Y3437800D01*
X-7980000Y3437800D02*
X-7177530Y3437800D01*
G04 #@! TO.C,U1*
X-585000Y8597800D02*
X-4035000Y8597800D01*
X-585000Y8597800D02*
X1365000Y8597800D01*
X-585000Y3477800D02*
X-2535000Y3477800D01*
X-585000Y3477800D02*
X1365000Y3477800D01*
G04 #@! TD*
M02*
