G04 #@! TF.GenerationSoftware,KiCad,Pcbnew,5.1.12-84ad8e8a86~92~ubuntu18.04.1*
G04 #@! TF.CreationDate,2022-04-11T08:29:57+03:00*
G04 #@! TF.ProjectId,soic,736f6963-2e6b-4696-9361-645f70636258,rev?*
G04 #@! TF.SameCoordinates,Original*
G04 #@! TF.FileFunction,Soldermask,Top*
G04 #@! TF.FilePolarity,Negative*
%FSLAX46Y46*%
G04 Gerber Fmt 4.6, Leading zero omitted, Abs format (unit mm)*
G04 Created by KiCad (PCBNEW 5.1.12-84ad8e8a86~92~ubuntu18.04.1) date 2022-04-11 08:29:57*
%MOMM*%
%LPD*%
G01*
G04 APERTURE LIST*
%ADD10C,2.500000*%
%ADD11O,1.350000X1.350000*%
%ADD12R,1.350000X1.350000*%
%ADD13O,1.000000X1.000000*%
%ADD14R,1.000000X1.000000*%
G04 APERTURE END LIST*
D10*
G04 #@! TO.C,H2*
X12130000Y5442800D03*
G04 #@! TD*
G04 #@! TO.C,H1*
X-11870000Y5442800D03*
G04 #@! TD*
D11*
G04 #@! TO.C,J2*
X7100000Y8442800D03*
X7100000Y6442800D03*
X7100000Y4442800D03*
D12*
X7100000Y2442800D03*
G04 #@! TD*
D13*
G04 #@! TO.C,J1*
X-6870000Y4132800D03*
X-6870000Y5402800D03*
X-6870000Y6672800D03*
D14*
X-6870000Y7942800D03*
G04 #@! TD*
G04 #@! TO.C,U1*
G36*
G01*
X915000Y7792800D02*
X915000Y8092800D01*
G75*
G02*
X1065000Y8242800I150000J0D01*
G01*
X2715000Y8242800D01*
G75*
G02*
X2865000Y8092800I0J-150000D01*
G01*
X2865000Y7792800D01*
G75*
G02*
X2715000Y7642800I-150000J0D01*
G01*
X1065000Y7642800D01*
G75*
G02*
X915000Y7792800I0J150000D01*
G01*
G37*
G36*
G01*
X915000Y6522800D02*
X915000Y6822800D01*
G75*
G02*
X1065000Y6972800I150000J0D01*
G01*
X2715000Y6972800D01*
G75*
G02*
X2865000Y6822800I0J-150000D01*
G01*
X2865000Y6522800D01*
G75*
G02*
X2715000Y6372800I-150000J0D01*
G01*
X1065000Y6372800D01*
G75*
G02*
X915000Y6522800I0J150000D01*
G01*
G37*
G36*
G01*
X915000Y5252800D02*
X915000Y5552800D01*
G75*
G02*
X1065000Y5702800I150000J0D01*
G01*
X2715000Y5702800D01*
G75*
G02*
X2865000Y5552800I0J-150000D01*
G01*
X2865000Y5252800D01*
G75*
G02*
X2715000Y5102800I-150000J0D01*
G01*
X1065000Y5102800D01*
G75*
G02*
X915000Y5252800I0J150000D01*
G01*
G37*
G36*
G01*
X915000Y3982800D02*
X915000Y4282800D01*
G75*
G02*
X1065000Y4432800I150000J0D01*
G01*
X2715000Y4432800D01*
G75*
G02*
X2865000Y4282800I0J-150000D01*
G01*
X2865000Y3982800D01*
G75*
G02*
X2715000Y3832800I-150000J0D01*
G01*
X1065000Y3832800D01*
G75*
G02*
X915000Y3982800I0J150000D01*
G01*
G37*
G36*
G01*
X-4035000Y3982800D02*
X-4035000Y4282800D01*
G75*
G02*
X-3885000Y4432800I150000J0D01*
G01*
X-2235000Y4432800D01*
G75*
G02*
X-2085000Y4282800I0J-150000D01*
G01*
X-2085000Y3982800D01*
G75*
G02*
X-2235000Y3832800I-150000J0D01*
G01*
X-3885000Y3832800D01*
G75*
G02*
X-4035000Y3982800I0J150000D01*
G01*
G37*
G36*
G01*
X-4035000Y5252800D02*
X-4035000Y5552800D01*
G75*
G02*
X-3885000Y5702800I150000J0D01*
G01*
X-2235000Y5702800D01*
G75*
G02*
X-2085000Y5552800I0J-150000D01*
G01*
X-2085000Y5252800D01*
G75*
G02*
X-2235000Y5102800I-150000J0D01*
G01*
X-3885000Y5102800D01*
G75*
G02*
X-4035000Y5252800I0J150000D01*
G01*
G37*
G36*
G01*
X-4035000Y6522800D02*
X-4035000Y6822800D01*
G75*
G02*
X-3885000Y6972800I150000J0D01*
G01*
X-2235000Y6972800D01*
G75*
G02*
X-2085000Y6822800I0J-150000D01*
G01*
X-2085000Y6522800D01*
G75*
G02*
X-2235000Y6372800I-150000J0D01*
G01*
X-3885000Y6372800D01*
G75*
G02*
X-4035000Y6522800I0J150000D01*
G01*
G37*
G36*
G01*
X-4035000Y7792800D02*
X-4035000Y8092800D01*
G75*
G02*
X-3885000Y8242800I150000J0D01*
G01*
X-2235000Y8242800D01*
G75*
G02*
X-2085000Y8092800I0J-150000D01*
G01*
X-2085000Y7792800D01*
G75*
G02*
X-2235000Y7642800I-150000J0D01*
G01*
X-3885000Y7642800D01*
G75*
G02*
X-4035000Y7792800I0J150000D01*
G01*
G37*
G04 #@! TD*
M02*
