G04 #@! TF.GenerationSoftware,KiCad,Pcbnew,6.0.4-6f826c9f35~116~ubuntu18.04.1*
G04 #@! TF.CreationDate,2022-09-06T13:01:23+03:00*
G04 #@! TF.ProjectId,soic,736f6963-2e6b-4696-9361-645f70636258,rev?*
G04 #@! TF.SameCoordinates,Original*
G04 #@! TF.FileFunction,Copper,L1,Top*
G04 #@! TF.FilePolarity,Positive*
%FSLAX46Y46*%
G04 Gerber Fmt 4.6, Leading zero omitted, Abs format (unit mm)*
G04 Created by KiCad (PCBNEW 6.0.4-6f826c9f35~116~ubuntu18.04.1) date 2022-09-06 13:01:23*
%MOMM*%
%LPD*%
G01*
G04 APERTURE LIST*
G04 Aperture macros list*
%AMRoundRect*
0 Rectangle with rounded corners*
0 $1 Rounding radius*
0 $2 $3 $4 $5 $6 $7 $8 $9 X,Y pos of 4 corners*
0 Add a 4 corners polygon primitive as box body*
4,1,4,$2,$3,$4,$5,$6,$7,$8,$9,$2,$3,0*
0 Add four circle primitives for the rounded corners*
1,1,$1+$1,$2,$3*
1,1,$1+$1,$4,$5*
1,1,$1+$1,$6,$7*
1,1,$1+$1,$8,$9*
0 Add four rect primitives between the rounded corners*
20,1,$1+$1,$2,$3,$4,$5,0*
20,1,$1+$1,$4,$5,$6,$7,0*
20,1,$1+$1,$6,$7,$8,$9,0*
20,1,$1+$1,$8,$9,$2,$3,0*%
G04 Aperture macros list end*
G04 #@! TA.AperFunction,ComponentPad*
%ADD10R,1.350000X1.350000*%
G04 #@! TD*
G04 #@! TA.AperFunction,ComponentPad*
%ADD11O,1.350000X1.350000*%
G04 #@! TD*
G04 #@! TA.AperFunction,SMDPad,CuDef*
%ADD12RoundRect,0.100000X-0.130000X-0.100000X0.130000X-0.100000X0.130000X0.100000X-0.130000X0.100000X0*%
G04 #@! TD*
G04 #@! TA.AperFunction,ComponentPad*
%ADD13O,1.000000X1.000000*%
G04 #@! TD*
G04 #@! TA.AperFunction,ComponentPad*
%ADD14R,1.000000X1.000000*%
G04 #@! TD*
G04 #@! TA.AperFunction,SMDPad,CuDef*
%ADD15RoundRect,0.150000X-0.825000X-0.150000X0.825000X-0.150000X0.825000X0.150000X-0.825000X0.150000X0*%
G04 #@! TD*
G04 #@! TA.AperFunction,ViaPad*
%ADD16C,0.800000*%
G04 #@! TD*
G04 #@! TA.AperFunction,Conductor*
%ADD17C,0.250000*%
G04 #@! TD*
G04 APERTURE END LIST*
D10*
G04 #@! TO.P,J2,1,Pin_1*
G04 #@! TO.N,Net-(J2-Pad1)*
X7620000Y2354800D03*
D11*
G04 #@! TO.P,J2,2,Pin_2*
G04 #@! TO.N,Net-(J1-Pad4)*
X7620000Y4354800D03*
G04 #@! TO.P,J2,3,Pin_3*
G04 #@! TO.N,Net-(J1-Pad2)*
X7620000Y6354800D03*
G04 #@! TO.P,J2,4,Pin_4*
G04 #@! TO.N,Net-(J2-Pad4)*
X7620000Y8354800D03*
G04 #@! TD*
D12*
G04 #@! TO.P,R2,1*
G04 #@! TO.N,Net-(R2-Pad1)*
X4125000Y8259800D03*
G04 #@! TO.P,R2,2*
G04 #@! TO.N,Net-(J2-Pad4)*
X4765000Y8259800D03*
G04 #@! TD*
G04 #@! TO.P,R1,1*
G04 #@! TO.N,Net-(R1-Pad1)*
X4125000Y6354800D03*
G04 #@! TO.P,R1,2*
G04 #@! TO.N,Net-(J1-Pad2)*
X4765000Y6354800D03*
G04 #@! TD*
D13*
G04 #@! TO.P,J1,4,Pin_4*
G04 #@! TO.N,Net-(J1-Pad4)*
X-6870000Y4132800D03*
G04 #@! TO.P,J1,3,Pin_3*
G04 #@! TO.N,Net-(J1-Pad3)*
X-6870000Y5402800D03*
G04 #@! TO.P,J1,2,Pin_2*
G04 #@! TO.N,Net-(J1-Pad2)*
X-6870000Y6672800D03*
D14*
G04 #@! TO.P,J1,1,Pin_1*
G04 #@! TO.N,Net-(J1-Pad1)*
X-6870000Y7942800D03*
G04 #@! TD*
D15*
G04 #@! TO.P,U1,8,Hold*
G04 #@! TO.N,Net-(R2-Pad1)*
X1890000Y7942800D03*
G04 #@! TO.P,U1,7,T*
G04 #@! TO.N,Net-(R1-Pad1)*
X1890000Y6672800D03*
G04 #@! TO.P,U1,6,Ch*
G04 #@! TO.N,Net-(J1-Pad4)*
X1890000Y5402800D03*
G04 #@! TO.P,U1,5*
G04 #@! TO.N,Net-(J2-Pad1)*
X1890000Y4132800D03*
G04 #@! TO.P,U1,4,V-*
G04 #@! TO.N,Net-(J1-Pad4)*
X-3060000Y4132800D03*
G04 #@! TO.P,U1,3,I*
G04 #@! TO.N,Net-(J1-Pad3)*
X-3060000Y5402800D03*
G04 #@! TO.P,U1,2,Adj*
G04 #@! TO.N,Net-(J1-Pad2)*
X-3060000Y6672800D03*
G04 #@! TO.P,U1,1,V+*
G04 #@! TO.N,Net-(J1-Pad1)*
X-3060000Y7942800D03*
G04 #@! TD*
D16*
G04 #@! TO.N,*
X0Y-2995200D03*
X0Y14004800D03*
G04 #@! TO.N,Net-(J1-Pad4)*
X4688000Y4442800D03*
G04 #@! TD*
D17*
G04 #@! TO.N,Net-(J1-Pad2)*
X4765000Y6354800D02*
X4765000Y6669800D01*
X4765000Y6669800D02*
X4116520Y7318280D01*
X4116520Y7318280D02*
X-1322520Y7318280D01*
X-1322520Y7318280D02*
X-1968000Y6672800D01*
X-1968000Y6672800D02*
X-3060000Y6672800D01*
G04 #@! TO.N,Net-(J2-Pad4)*
X5588000Y8386800D02*
X6540000Y8386800D01*
X4765000Y8259800D02*
X5461000Y8259800D01*
X5461000Y8259800D02*
X5588000Y8386800D01*
X6540000Y8386800D02*
X6572000Y8354800D01*
X7620000Y8354800D02*
X6572000Y8354800D01*
G04 #@! TO.N,Net-(R2-Pad1)*
X1890000Y7942800D02*
X3808000Y7942800D01*
X3808000Y7942800D02*
X4125000Y8259800D01*
G04 #@! TO.N,Net-(J1-Pad2)*
X4765000Y6354800D02*
X7620000Y6354800D01*
G04 #@! TO.N,Net-(J2-Pad1)*
X1890000Y4132800D02*
X2222000Y4132800D01*
X2222000Y4132800D02*
X4000000Y2354800D01*
X4000000Y2354800D02*
X7620000Y2354800D01*
G04 #@! TO.N,Net-(R1-Pad1)*
X1890000Y6672800D02*
X3492000Y6672800D01*
X3492000Y6672800D02*
X3810000Y6354800D01*
X3810000Y6354800D02*
X4125000Y6354800D01*
G04 #@! TO.N,Net-(J1-Pad4)*
X4688000Y4442800D02*
X6985000Y4442800D01*
X1890000Y5402800D02*
X2857000Y5402800D01*
X2857000Y5402800D02*
X3817000Y4442800D01*
X3817000Y4442800D02*
X4688000Y4442800D01*
X-6870000Y4132800D02*
X-3060000Y4132800D01*
G04 #@! TO.N,Net-(J1-Pad3)*
X-6870000Y5402800D02*
X-3060000Y5402800D01*
G04 #@! TO.N,Net-(J1-Pad2)*
X-6870000Y6672800D02*
X-3060000Y6672800D01*
G04 #@! TO.N,Net-(J1-Pad1)*
X-6870000Y7942800D02*
X-3060000Y7942800D01*
G04 #@! TD*
M02*
