G04 #@! TF.GenerationSoftware,KiCad,Pcbnew,5.1.12-84ad8e8a86~92~ubuntu18.04.1*
G04 #@! TF.CreationDate,2022-03-16T09:52:17+02:00*
G04 #@! TF.ProjectId,soic,736f6963-2e6b-4696-9361-645f70636258,rev?*
G04 #@! TF.SameCoordinates,Original*
G04 #@! TF.FileFunction,Soldermask,Top*
G04 #@! TF.FilePolarity,Negative*
%FSLAX46Y46*%
G04 Gerber Fmt 4.6, Leading zero omitted, Abs format (unit mm)*
G04 Created by KiCad (PCBNEW 5.1.12-84ad8e8a86~92~ubuntu18.04.1) date 2022-03-16 09:52:17*
%MOMM*%
%LPD*%
G01*
G04 APERTURE LIST*
%ADD10C,2.100000*%
%ADD11C,2.500000*%
%ADD12O,1.350000X1.350000*%
%ADD13R,1.350000X1.350000*%
%ADD14O,1.000000X1.000000*%
%ADD15R,1.000000X1.000000*%
G04 APERTURE END LIST*
D10*
G04 #@! TO.C,H4*
X0Y4800D03*
G04 #@! TD*
G04 #@! TO.C,H3*
X0Y22004800D03*
G04 #@! TD*
D11*
G04 #@! TO.C,H2*
X29130000Y11442800D03*
G04 #@! TD*
G04 #@! TO.C,H1*
X5130000Y11442800D03*
G04 #@! TD*
D12*
G04 #@! TO.C,J2*
X24100000Y14442800D03*
X24100000Y12442800D03*
X24100000Y10442800D03*
D13*
X24100000Y8442800D03*
G04 #@! TD*
D14*
G04 #@! TO.C,J1*
X10130000Y10132800D03*
X10130000Y11402800D03*
X10130000Y12672800D03*
D15*
X10130000Y13942800D03*
G04 #@! TD*
G04 #@! TO.C,U1*
G36*
G01*
X17915000Y13792800D02*
X17915000Y14092800D01*
G75*
G02*
X18065000Y14242800I150000J0D01*
G01*
X19715000Y14242800D01*
G75*
G02*
X19865000Y14092800I0J-150000D01*
G01*
X19865000Y13792800D01*
G75*
G02*
X19715000Y13642800I-150000J0D01*
G01*
X18065000Y13642800D01*
G75*
G02*
X17915000Y13792800I0J150000D01*
G01*
G37*
G36*
G01*
X17915000Y12522800D02*
X17915000Y12822800D01*
G75*
G02*
X18065000Y12972800I150000J0D01*
G01*
X19715000Y12972800D01*
G75*
G02*
X19865000Y12822800I0J-150000D01*
G01*
X19865000Y12522800D01*
G75*
G02*
X19715000Y12372800I-150000J0D01*
G01*
X18065000Y12372800D01*
G75*
G02*
X17915000Y12522800I0J150000D01*
G01*
G37*
G36*
G01*
X17915000Y11252800D02*
X17915000Y11552800D01*
G75*
G02*
X18065000Y11702800I150000J0D01*
G01*
X19715000Y11702800D01*
G75*
G02*
X19865000Y11552800I0J-150000D01*
G01*
X19865000Y11252800D01*
G75*
G02*
X19715000Y11102800I-150000J0D01*
G01*
X18065000Y11102800D01*
G75*
G02*
X17915000Y11252800I0J150000D01*
G01*
G37*
G36*
G01*
X17915000Y9982800D02*
X17915000Y10282800D01*
G75*
G02*
X18065000Y10432800I150000J0D01*
G01*
X19715000Y10432800D01*
G75*
G02*
X19865000Y10282800I0J-150000D01*
G01*
X19865000Y9982800D01*
G75*
G02*
X19715000Y9832800I-150000J0D01*
G01*
X18065000Y9832800D01*
G75*
G02*
X17915000Y9982800I0J150000D01*
G01*
G37*
G36*
G01*
X12965000Y9982800D02*
X12965000Y10282800D01*
G75*
G02*
X13115000Y10432800I150000J0D01*
G01*
X14765000Y10432800D01*
G75*
G02*
X14915000Y10282800I0J-150000D01*
G01*
X14915000Y9982800D01*
G75*
G02*
X14765000Y9832800I-150000J0D01*
G01*
X13115000Y9832800D01*
G75*
G02*
X12965000Y9982800I0J150000D01*
G01*
G37*
G36*
G01*
X12965000Y11252800D02*
X12965000Y11552800D01*
G75*
G02*
X13115000Y11702800I150000J0D01*
G01*
X14765000Y11702800D01*
G75*
G02*
X14915000Y11552800I0J-150000D01*
G01*
X14915000Y11252800D01*
G75*
G02*
X14765000Y11102800I-150000J0D01*
G01*
X13115000Y11102800D01*
G75*
G02*
X12965000Y11252800I0J150000D01*
G01*
G37*
G36*
G01*
X12965000Y12522800D02*
X12965000Y12822800D01*
G75*
G02*
X13115000Y12972800I150000J0D01*
G01*
X14765000Y12972800D01*
G75*
G02*
X14915000Y12822800I0J-150000D01*
G01*
X14915000Y12522800D01*
G75*
G02*
X14765000Y12372800I-150000J0D01*
G01*
X13115000Y12372800D01*
G75*
G02*
X12965000Y12522800I0J150000D01*
G01*
G37*
G36*
G01*
X12965000Y13792800D02*
X12965000Y14092800D01*
G75*
G02*
X13115000Y14242800I150000J0D01*
G01*
X14765000Y14242800D01*
G75*
G02*
X14915000Y14092800I0J-150000D01*
G01*
X14915000Y13792800D01*
G75*
G02*
X14765000Y13642800I-150000J0D01*
G01*
X13115000Y13642800D01*
G75*
G02*
X12965000Y13792800I0J150000D01*
G01*
G37*
G04 #@! TD*
M02*
