G04 #@! TF.GenerationSoftware,KiCad,Pcbnew,5.1.12-84ad8e8a86~92~ubuntu18.04.1*
G04 #@! TF.CreationDate,2022-03-01T09:02:16+02:00*
G04 #@! TF.ProjectId,soic,736f6963-2e6b-4696-9361-645f70636258,rev?*
G04 #@! TF.SameCoordinates,Original*
G04 #@! TF.FileFunction,Paste,Top*
G04 #@! TF.FilePolarity,Positive*
%FSLAX46Y46*%
G04 Gerber Fmt 4.6, Leading zero omitted, Abs format (unit mm)*
G04 Created by KiCad (PCBNEW 5.1.12-84ad8e8a86~92~ubuntu18.04.1) date 2022-03-01 09:02:16*
%MOMM*%
%LPD*%
G01*
G04 APERTURE LIST*
G04 APERTURE END LIST*
G04 #@! TO.C,U1*
G36*
G01*
X81595000Y-178743600D02*
X81595000Y-178443600D01*
G75*
G02*
X81745000Y-178293600I150000J0D01*
G01*
X83395000Y-178293600D01*
G75*
G02*
X83545000Y-178443600I0J-150000D01*
G01*
X83545000Y-178743600D01*
G75*
G02*
X83395000Y-178893600I-150000J0D01*
G01*
X81745000Y-178893600D01*
G75*
G02*
X81595000Y-178743600I0J150000D01*
G01*
G37*
G36*
G01*
X81595000Y-180013600D02*
X81595000Y-179713600D01*
G75*
G02*
X81745000Y-179563600I150000J0D01*
G01*
X83395000Y-179563600D01*
G75*
G02*
X83545000Y-179713600I0J-150000D01*
G01*
X83545000Y-180013600D01*
G75*
G02*
X83395000Y-180163600I-150000J0D01*
G01*
X81745000Y-180163600D01*
G75*
G02*
X81595000Y-180013600I0J150000D01*
G01*
G37*
G36*
G01*
X81595000Y-181283600D02*
X81595000Y-180983600D01*
G75*
G02*
X81745000Y-180833600I150000J0D01*
G01*
X83395000Y-180833600D01*
G75*
G02*
X83545000Y-180983600I0J-150000D01*
G01*
X83545000Y-181283600D01*
G75*
G02*
X83395000Y-181433600I-150000J0D01*
G01*
X81745000Y-181433600D01*
G75*
G02*
X81595000Y-181283600I0J150000D01*
G01*
G37*
G36*
G01*
X81595000Y-182553600D02*
X81595000Y-182253600D01*
G75*
G02*
X81745000Y-182103600I150000J0D01*
G01*
X83395000Y-182103600D01*
G75*
G02*
X83545000Y-182253600I0J-150000D01*
G01*
X83545000Y-182553600D01*
G75*
G02*
X83395000Y-182703600I-150000J0D01*
G01*
X81745000Y-182703600D01*
G75*
G02*
X81595000Y-182553600I0J150000D01*
G01*
G37*
G36*
G01*
X76645000Y-182553600D02*
X76645000Y-182253600D01*
G75*
G02*
X76795000Y-182103600I150000J0D01*
G01*
X78445000Y-182103600D01*
G75*
G02*
X78595000Y-182253600I0J-150000D01*
G01*
X78595000Y-182553600D01*
G75*
G02*
X78445000Y-182703600I-150000J0D01*
G01*
X76795000Y-182703600D01*
G75*
G02*
X76645000Y-182553600I0J150000D01*
G01*
G37*
G36*
G01*
X76645000Y-181283600D02*
X76645000Y-180983600D01*
G75*
G02*
X76795000Y-180833600I150000J0D01*
G01*
X78445000Y-180833600D01*
G75*
G02*
X78595000Y-180983600I0J-150000D01*
G01*
X78595000Y-181283600D01*
G75*
G02*
X78445000Y-181433600I-150000J0D01*
G01*
X76795000Y-181433600D01*
G75*
G02*
X76645000Y-181283600I0J150000D01*
G01*
G37*
G36*
G01*
X76645000Y-180013600D02*
X76645000Y-179713600D01*
G75*
G02*
X76795000Y-179563600I150000J0D01*
G01*
X78445000Y-179563600D01*
G75*
G02*
X78595000Y-179713600I0J-150000D01*
G01*
X78595000Y-180013600D01*
G75*
G02*
X78445000Y-180163600I-150000J0D01*
G01*
X76795000Y-180163600D01*
G75*
G02*
X76645000Y-180013600I0J150000D01*
G01*
G37*
G36*
G01*
X76645000Y-178743600D02*
X76645000Y-178443600D01*
G75*
G02*
X76795000Y-178293600I150000J0D01*
G01*
X78445000Y-178293600D01*
G75*
G02*
X78595000Y-178443600I0J-150000D01*
G01*
X78595000Y-178743600D01*
G75*
G02*
X78445000Y-178893600I-150000J0D01*
G01*
X76795000Y-178893600D01*
G75*
G02*
X76645000Y-178743600I0J150000D01*
G01*
G37*
G04 #@! TD*
M02*
