G04 #@! TF.GenerationSoftware,KiCad,Pcbnew,5.1.12-84ad8e8a86~92~ubuntu18.04.1*
G04 #@! TF.CreationDate,2022-03-18T11:55:14+02:00*
G04 #@! TF.ProjectId,soic,736f6963-2e6b-4696-9361-645f70636258,rev?*
G04 #@! TF.SameCoordinates,Original*
G04 #@! TF.FileFunction,Paste,Top*
G04 #@! TF.FilePolarity,Positive*
%FSLAX46Y46*%
G04 Gerber Fmt 4.6, Leading zero omitted, Abs format (unit mm)*
G04 Created by KiCad (PCBNEW 5.1.12-84ad8e8a86~92~ubuntu18.04.1) date 2022-03-18 11:55:14*
%MOMM*%
%LPD*%
G01*
G04 APERTURE LIST*
G04 APERTURE END LIST*
G04 #@! TO.C,U1*
G36*
G01*
X17915000Y13792800D02*
X17915000Y14092800D01*
G75*
G02*
X18065000Y14242800I150000J0D01*
G01*
X19715000Y14242800D01*
G75*
G02*
X19865000Y14092800I0J-150000D01*
G01*
X19865000Y13792800D01*
G75*
G02*
X19715000Y13642800I-150000J0D01*
G01*
X18065000Y13642800D01*
G75*
G02*
X17915000Y13792800I0J150000D01*
G01*
G37*
G36*
G01*
X17915000Y12522800D02*
X17915000Y12822800D01*
G75*
G02*
X18065000Y12972800I150000J0D01*
G01*
X19715000Y12972800D01*
G75*
G02*
X19865000Y12822800I0J-150000D01*
G01*
X19865000Y12522800D01*
G75*
G02*
X19715000Y12372800I-150000J0D01*
G01*
X18065000Y12372800D01*
G75*
G02*
X17915000Y12522800I0J150000D01*
G01*
G37*
G36*
G01*
X17915000Y11252800D02*
X17915000Y11552800D01*
G75*
G02*
X18065000Y11702800I150000J0D01*
G01*
X19715000Y11702800D01*
G75*
G02*
X19865000Y11552800I0J-150000D01*
G01*
X19865000Y11252800D01*
G75*
G02*
X19715000Y11102800I-150000J0D01*
G01*
X18065000Y11102800D01*
G75*
G02*
X17915000Y11252800I0J150000D01*
G01*
G37*
G36*
G01*
X17915000Y9982800D02*
X17915000Y10282800D01*
G75*
G02*
X18065000Y10432800I150000J0D01*
G01*
X19715000Y10432800D01*
G75*
G02*
X19865000Y10282800I0J-150000D01*
G01*
X19865000Y9982800D01*
G75*
G02*
X19715000Y9832800I-150000J0D01*
G01*
X18065000Y9832800D01*
G75*
G02*
X17915000Y9982800I0J150000D01*
G01*
G37*
G36*
G01*
X12965000Y9982800D02*
X12965000Y10282800D01*
G75*
G02*
X13115000Y10432800I150000J0D01*
G01*
X14765000Y10432800D01*
G75*
G02*
X14915000Y10282800I0J-150000D01*
G01*
X14915000Y9982800D01*
G75*
G02*
X14765000Y9832800I-150000J0D01*
G01*
X13115000Y9832800D01*
G75*
G02*
X12965000Y9982800I0J150000D01*
G01*
G37*
G36*
G01*
X12965000Y11252800D02*
X12965000Y11552800D01*
G75*
G02*
X13115000Y11702800I150000J0D01*
G01*
X14765000Y11702800D01*
G75*
G02*
X14915000Y11552800I0J-150000D01*
G01*
X14915000Y11252800D01*
G75*
G02*
X14765000Y11102800I-150000J0D01*
G01*
X13115000Y11102800D01*
G75*
G02*
X12965000Y11252800I0J150000D01*
G01*
G37*
G36*
G01*
X12965000Y12522800D02*
X12965000Y12822800D01*
G75*
G02*
X13115000Y12972800I150000J0D01*
G01*
X14765000Y12972800D01*
G75*
G02*
X14915000Y12822800I0J-150000D01*
G01*
X14915000Y12522800D01*
G75*
G02*
X14765000Y12372800I-150000J0D01*
G01*
X13115000Y12372800D01*
G75*
G02*
X12965000Y12522800I0J150000D01*
G01*
G37*
G36*
G01*
X12965000Y13792800D02*
X12965000Y14092800D01*
G75*
G02*
X13115000Y14242800I150000J0D01*
G01*
X14765000Y14242800D01*
G75*
G02*
X14915000Y14092800I0J-150000D01*
G01*
X14915000Y13792800D01*
G75*
G02*
X14765000Y13642800I-150000J0D01*
G01*
X13115000Y13642800D01*
G75*
G02*
X12965000Y13792800I0J150000D01*
G01*
G37*
G04 #@! TD*
M02*
