G04 #@! TF.GenerationSoftware,KiCad,Pcbnew,6.0.4-6f826c9f35~116~ubuntu18.04.1*
G04 #@! TF.CreationDate,2022-09-06T13:01:24+03:00*
G04 #@! TF.ProjectId,soic,736f6963-2e6b-4696-9361-645f70636258,rev?*
G04 #@! TF.SameCoordinates,Original*
G04 #@! TF.FileFunction,Legend,Bot*
G04 #@! TF.FilePolarity,Positive*
%FSLAX46Y46*%
G04 Gerber Fmt 4.6, Leading zero omitted, Abs format (unit mm)*
G04 Created by KiCad (PCBNEW 6.0.4-6f826c9f35~116~ubuntu18.04.1) date 2022-09-06 13:01:24*
%MOMM*%
%LPD*%
G01*
G04 APERTURE LIST*
%ADD10C,0.150000*%
%ADD11C,0.120000*%
G04 APERTURE END LIST*
D10*
X13952380Y2357419D02*
X13952380Y3357419D01*
X13952380Y2976466D02*
X13857142Y3024085D01*
X13666666Y3024085D01*
X13571428Y2976466D01*
X13523809Y2928847D01*
X13476190Y2833609D01*
X13476190Y2547895D01*
X13523809Y2452657D01*
X13571428Y2405038D01*
X13666666Y2357419D01*
X13857142Y2357419D01*
X13952380Y2405038D01*
X12904761Y2357419D02*
X13000000Y2405038D01*
X13047619Y2452657D01*
X13095238Y2547895D01*
X13095238Y2833609D01*
X13047619Y2928847D01*
X13000000Y2976466D01*
X12904761Y3024085D01*
X12761904Y3024085D01*
X12666666Y2976466D01*
X12619047Y2928847D01*
X12571428Y2833609D01*
X12571428Y2547895D01*
X12619047Y2452657D01*
X12666666Y2405038D01*
X12761904Y2357419D01*
X12904761Y2357419D01*
X12285714Y3024085D02*
X11904761Y3024085D01*
X12142857Y3357419D02*
X12142857Y2500276D01*
X12095238Y2405038D01*
X12000000Y2357419D01*
X11904761Y2357419D01*
X14500000Y747419D02*
X14500000Y1414085D01*
X14500000Y1223609D02*
X14452380Y1318847D01*
X14404761Y1366466D01*
X14309523Y1414085D01*
X14214285Y1414085D01*
X13880952Y747419D02*
X13880952Y1414085D01*
X13880952Y1747419D02*
X13928571Y1699800D01*
X13880952Y1652180D01*
X13833333Y1699800D01*
X13880952Y1747419D01*
X13880952Y1652180D01*
X12976190Y1414085D02*
X12976190Y604561D01*
X13023809Y509323D01*
X13071428Y461704D01*
X13166666Y414085D01*
X13309523Y414085D01*
X13404761Y461704D01*
X12976190Y795038D02*
X13071428Y747419D01*
X13261904Y747419D01*
X13357142Y795038D01*
X13404761Y842657D01*
X13452380Y937895D01*
X13452380Y1223609D01*
X13404761Y1318847D01*
X13357142Y1366466D01*
X13261904Y1414085D01*
X13071428Y1414085D01*
X12976190Y1366466D01*
X12500000Y747419D02*
X12500000Y1747419D01*
X12071428Y747419D02*
X12071428Y1271228D01*
X12119047Y1366466D01*
X12214285Y1414085D01*
X12357142Y1414085D01*
X12452380Y1366466D01*
X12500000Y1318847D01*
X11738095Y1414085D02*
X11357142Y1414085D01*
X11595238Y1747419D02*
X11595238Y890276D01*
X11547619Y795038D01*
X11452380Y747419D01*
X11357142Y747419D01*
X14095238Y10274085D02*
X13714285Y10274085D01*
X13952380Y10607419D02*
X13952380Y9750276D01*
X13904761Y9655038D01*
X13809523Y9607419D01*
X13714285Y9607419D01*
X13238095Y9607419D02*
X13333333Y9655038D01*
X13380952Y9702657D01*
X13428571Y9797895D01*
X13428571Y10083609D01*
X13380952Y10178847D01*
X13333333Y10226466D01*
X13238095Y10274085D01*
X13095238Y10274085D01*
X13000000Y10226466D01*
X12952380Y10178847D01*
X12904761Y10083609D01*
X12904761Y9797895D01*
X12952380Y9702657D01*
X13000000Y9655038D01*
X13095238Y9607419D01*
X13238095Y9607419D01*
X12476190Y10274085D02*
X12476190Y9274085D01*
X12476190Y10226466D02*
X12380952Y10274085D01*
X12190476Y10274085D01*
X12095238Y10226466D01*
X12047619Y10178847D01*
X12000000Y10083609D01*
X12000000Y9797895D01*
X12047619Y9702657D01*
X12095238Y9655038D01*
X12190476Y9607419D01*
X12380952Y9607419D01*
X12476190Y9655038D01*
X14500000Y7997419D02*
X14500000Y8664085D01*
X14500000Y8473609D02*
X14452380Y8568847D01*
X14404761Y8616466D01*
X14309523Y8664085D01*
X14214285Y8664085D01*
X13880952Y7997419D02*
X13880952Y8664085D01*
X13880952Y8997419D02*
X13928571Y8949800D01*
X13880952Y8902180D01*
X13833333Y8949800D01*
X13880952Y8997419D01*
X13880952Y8902180D01*
X12976190Y8664085D02*
X12976190Y7854561D01*
X13023809Y7759323D01*
X13071428Y7711704D01*
X13166666Y7664085D01*
X13309523Y7664085D01*
X13404761Y7711704D01*
X12976190Y8045038D02*
X13071428Y7997419D01*
X13261904Y7997419D01*
X13357142Y8045038D01*
X13404761Y8092657D01*
X13452380Y8187895D01*
X13452380Y8473609D01*
X13404761Y8568847D01*
X13357142Y8616466D01*
X13261904Y8664085D01*
X13071428Y8664085D01*
X12976190Y8616466D01*
X12500000Y7997419D02*
X12500000Y8997419D01*
X12071428Y7997419D02*
X12071428Y8521228D01*
X12119047Y8616466D01*
X12214285Y8664085D01*
X12357142Y8664085D01*
X12452380Y8616466D01*
X12500000Y8568847D01*
X11738095Y8664085D02*
X11357142Y8664085D01*
X11595238Y8997419D02*
X11595238Y8140276D01*
X11547619Y8045038D01*
X11452380Y7997419D01*
X11357142Y7997419D01*
X-12404761Y10274085D02*
X-12785714Y10274085D01*
X-12547619Y10607419D02*
X-12547619Y9750276D01*
X-12595238Y9655038D01*
X-12690476Y9607419D01*
X-12785714Y9607419D01*
X-13261904Y9607419D02*
X-13166666Y9655038D01*
X-13119047Y9702657D01*
X-13071428Y9797895D01*
X-13071428Y10083609D01*
X-13119047Y10178847D01*
X-13166666Y10226466D01*
X-13261904Y10274085D01*
X-13404761Y10274085D01*
X-13500000Y10226466D01*
X-13547619Y10178847D01*
X-13595238Y10083609D01*
X-13595238Y9797895D01*
X-13547619Y9702657D01*
X-13500000Y9655038D01*
X-13404761Y9607419D01*
X-13261904Y9607419D01*
X-14023809Y10274085D02*
X-14023809Y9274085D01*
X-14023809Y10226466D02*
X-14119047Y10274085D01*
X-14309523Y10274085D01*
X-14404761Y10226466D01*
X-14452380Y10178847D01*
X-14500000Y10083609D01*
X-14500000Y9797895D01*
X-14452380Y9702657D01*
X-14404761Y9655038D01*
X-14309523Y9607419D01*
X-14119047Y9607419D01*
X-14023809Y9655038D01*
X-12619047Y7997419D02*
X-12523809Y8045038D01*
X-12476190Y8140276D01*
X-12476190Y8997419D01*
X-13380952Y8045038D02*
X-13285714Y7997419D01*
X-13095238Y7997419D01*
X-13000000Y8045038D01*
X-12952380Y8140276D01*
X-12952380Y8521228D01*
X-13000000Y8616466D01*
X-13095238Y8664085D01*
X-13285714Y8664085D01*
X-13380952Y8616466D01*
X-13428571Y8521228D01*
X-13428571Y8425990D01*
X-12952380Y8330752D01*
X-13714285Y8664085D02*
X-14095238Y8664085D01*
X-13857142Y7997419D02*
X-13857142Y8854561D01*
X-13904761Y8949800D01*
X-14000000Y8997419D01*
X-14095238Y8997419D01*
X-14285714Y8664085D02*
X-14666666Y8664085D01*
X-14428571Y8997419D02*
X-14428571Y8140276D01*
X-14476190Y8045038D01*
X-14571428Y7997419D01*
X-14666666Y7997419D01*
X-12297619Y2357419D02*
X-12297619Y3357419D01*
X-12297619Y2976466D02*
X-12392857Y3024085D01*
X-12583333Y3024085D01*
X-12678571Y2976466D01*
X-12726190Y2928847D01*
X-12773809Y2833609D01*
X-12773809Y2547895D01*
X-12726190Y2452657D01*
X-12678571Y2405038D01*
X-12583333Y2357419D01*
X-12392857Y2357419D01*
X-12297619Y2405038D01*
X-13345238Y2357419D02*
X-13250000Y2405038D01*
X-13202380Y2452657D01*
X-13154761Y2547895D01*
X-13154761Y2833609D01*
X-13202380Y2928847D01*
X-13250000Y2976466D01*
X-13345238Y3024085D01*
X-13488095Y3024085D01*
X-13583333Y2976466D01*
X-13630952Y2928847D01*
X-13678571Y2833609D01*
X-13678571Y2547895D01*
X-13630952Y2452657D01*
X-13583333Y2405038D01*
X-13488095Y2357419D01*
X-13345238Y2357419D01*
X-13964285Y3024085D02*
X-14345238Y3024085D01*
X-14107142Y3357419D02*
X-14107142Y2500276D01*
X-14154761Y2405038D01*
X-14250000Y2357419D01*
X-14345238Y2357419D01*
X-12369047Y747419D02*
X-12273809Y795038D01*
X-12226190Y890276D01*
X-12226190Y1747419D01*
X-13130952Y795038D02*
X-13035714Y747419D01*
X-12845238Y747419D01*
X-12750000Y795038D01*
X-12702380Y890276D01*
X-12702380Y1271228D01*
X-12750000Y1366466D01*
X-12845238Y1414085D01*
X-13035714Y1414085D01*
X-13130952Y1366466D01*
X-13178571Y1271228D01*
X-13178571Y1175990D01*
X-12702380Y1080752D01*
X-13464285Y1414085D02*
X-13845238Y1414085D01*
X-13607142Y747419D02*
X-13607142Y1604561D01*
X-13654761Y1699800D01*
X-13750000Y1747419D01*
X-13845238Y1747419D01*
X-14035714Y1414085D02*
X-14416666Y1414085D01*
X-14178571Y1747419D02*
X-14178571Y890276D01*
X-14226190Y795038D01*
X-14321428Y747419D01*
X-14416666Y747419D01*
D11*
X15000000Y11004800D02*
X15000000Y10504800D01*
X14500000Y11004800D02*
X15000000Y11004800D01*
X-15000000Y4800D02*
X-14750000Y4800D01*
X-15000000Y254800D02*
X-15000000Y4800D01*
D10*
X-47619Y2405038D02*
X-142857Y2357419D01*
X-333333Y2357419D01*
X-428571Y2405038D01*
X-476190Y2500276D01*
X-476190Y2547895D01*
X-428571Y2643133D01*
X-333333Y2690752D01*
X-190476Y2690752D01*
X-95238Y2738371D01*
X-47619Y2833609D01*
X-47619Y2881228D01*
X-95238Y2976466D01*
X-190476Y3024085D01*
X-333333Y3024085D01*
X-428571Y2976466D01*
X-1047619Y2357419D02*
X-952380Y2405038D01*
X-904761Y2452657D01*
X-857142Y2547895D01*
X-857142Y2833609D01*
X-904761Y2928847D01*
X-952380Y2976466D01*
X-1047619Y3024085D01*
X-1190476Y3024085D01*
X-1285714Y2976466D01*
X-1333333Y2928847D01*
X-1380952Y2833609D01*
X-1380952Y2547895D01*
X-1333333Y2452657D01*
X-1285714Y2405038D01*
X-1190476Y2357419D01*
X-1047619Y2357419D01*
X-1809523Y2357419D02*
X-1809523Y3024085D01*
X-1809523Y3357419D02*
X-1761904Y3309800D01*
X-1809523Y3262180D01*
X-1857142Y3309800D01*
X-1809523Y3357419D01*
X-1809523Y3262180D01*
X-2714285Y2405038D02*
X-2619047Y2357419D01*
X-2428571Y2357419D01*
X-2333333Y2405038D01*
X-2285714Y2452657D01*
X-2238095Y2547895D01*
X-2238095Y2833609D01*
X-2285714Y2928847D01*
X-2333333Y2976466D01*
X-2428571Y3024085D01*
X-2619047Y3024085D01*
X-2714285Y2976466D01*
X-3142857Y2738371D02*
X-3904761Y2738371D01*
X-4714285Y2881228D02*
X-4857142Y2833609D01*
X-4904761Y2785990D01*
X-4952380Y2690752D01*
X-4952380Y2547895D01*
X-4904761Y2452657D01*
X-4857142Y2405038D01*
X-4761904Y2357419D01*
X-4380952Y2357419D01*
X-4380952Y3357419D01*
X-4714285Y3357419D01*
X-4809523Y3309800D01*
X-4857142Y3262180D01*
X-4904761Y3166942D01*
X-4904761Y3071704D01*
X-4857142Y2976466D01*
X-4809523Y2928847D01*
X-4714285Y2881228D01*
X-4380952Y2881228D01*
X2119047Y1652180D02*
X2071428Y1699800D01*
X1976190Y1747419D01*
X1738095Y1747419D01*
X1642857Y1699800D01*
X1595238Y1652180D01*
X1547619Y1556942D01*
X1547619Y1461704D01*
X1595238Y1318847D01*
X2166666Y747419D01*
X1547619Y747419D01*
X690476Y1747419D02*
X880952Y1747419D01*
X976190Y1699800D01*
X1023809Y1652180D01*
X1119047Y1509323D01*
X1166666Y1318847D01*
X1166666Y937895D01*
X1119047Y842657D01*
X1071428Y795038D01*
X976190Y747419D01*
X785714Y747419D01*
X690476Y795038D01*
X642857Y842657D01*
X595238Y937895D01*
X595238Y1175990D01*
X642857Y1271228D01*
X690476Y1318847D01*
X785714Y1366466D01*
X976190Y1366466D01*
X1071428Y1318847D01*
X1119047Y1271228D01*
X1166666Y1175990D01*
X166666Y842657D02*
X119047Y795038D01*
X166666Y747419D01*
X214285Y795038D01*
X166666Y842657D01*
X166666Y747419D01*
X-738095Y1747419D02*
X-547619Y1747419D01*
X-452380Y1699800D01*
X-404761Y1652180D01*
X-309523Y1509323D01*
X-261904Y1318847D01*
X-261904Y937895D01*
X-309523Y842657D01*
X-357142Y795038D01*
X-452380Y747419D01*
X-642857Y747419D01*
X-738095Y795038D01*
X-785714Y842657D01*
X-833333Y937895D01*
X-833333Y1175990D01*
X-785714Y1271228D01*
X-738095Y1318847D01*
X-642857Y1366466D01*
X-452380Y1366466D01*
X-357142Y1318847D01*
X-309523Y1271228D01*
X-261904Y1175990D01*
X-1261904Y842657D02*
X-1309523Y795038D01*
X-1261904Y747419D01*
X-1214285Y795038D01*
X-1261904Y842657D01*
X-1261904Y747419D01*
X-1690476Y1652180D02*
X-1738095Y1699800D01*
X-1833333Y1747419D01*
X-2071428Y1747419D01*
X-2166666Y1699800D01*
X-2214285Y1652180D01*
X-2261904Y1556942D01*
X-2261904Y1461704D01*
X-2214285Y1318847D01*
X-1642857Y747419D01*
X-2261904Y747419D01*
X-2880952Y1747419D02*
X-2976190Y1747419D01*
X-3071428Y1699800D01*
X-3119047Y1652180D01*
X-3166666Y1556942D01*
X-3214285Y1366466D01*
X-3214285Y1128371D01*
X-3166666Y937895D01*
X-3119047Y842657D01*
X-3071428Y795038D01*
X-2976190Y747419D01*
X-2880952Y747419D01*
X-2785714Y795038D01*
X-2738095Y842657D01*
X-2690476Y937895D01*
X-2642857Y1128371D01*
X-2642857Y1366466D01*
X-2690476Y1556942D01*
X-2738095Y1652180D01*
X-2785714Y1699800D01*
X-2880952Y1747419D01*
X-3595238Y1652180D02*
X-3642857Y1699800D01*
X-3738095Y1747419D01*
X-3976190Y1747419D01*
X-4071428Y1699800D01*
X-4119047Y1652180D01*
X-4166666Y1556942D01*
X-4166666Y1461704D01*
X-4119047Y1318847D01*
X-3547619Y747419D01*
X-4166666Y747419D01*
X-4547619Y1652180D02*
X-4595238Y1699800D01*
X-4690476Y1747419D01*
X-4928571Y1747419D01*
X-5023809Y1699800D01*
X-5071428Y1652180D01*
X-5119047Y1556942D01*
X-5119047Y1461704D01*
X-5071428Y1318847D01*
X-4499999Y747419D01*
X-5119047Y747419D01*
X-6261904Y1795038D02*
X-5404761Y509323D01*
X-6595238Y1414085D02*
X-6595238Y556942D01*
X-6547619Y461704D01*
X-6452380Y414085D01*
X-6404761Y414085D01*
X-6595238Y1747419D02*
X-6547619Y1699800D01*
X-6595238Y1652180D01*
X-6642857Y1699800D01*
X-6595238Y1747419D01*
X-6595238Y1652180D01*
X-7071428Y1414085D02*
X-7071428Y556942D01*
X-7023809Y461704D01*
X-6928571Y414085D01*
X-6880952Y414085D01*
X-7071428Y1747419D02*
X-7023809Y1699800D01*
X-7071428Y1652180D01*
X-7119047Y1699800D01*
X-7071428Y1747419D01*
X-7071428Y1652180D01*
M02*
