G04 #@! TF.GenerationSoftware,KiCad,Pcbnew,5.1.12-84ad8e8a86~92~ubuntu18.04.1*
G04 #@! TF.CreationDate,2022-04-11T08:29:57+03:00*
G04 #@! TF.ProjectId,soic,736f6963-2e6b-4696-9361-645f70636258,rev?*
G04 #@! TF.SameCoordinates,Original*
G04 #@! TF.FileFunction,Copper,L1,Top*
G04 #@! TF.FilePolarity,Positive*
%FSLAX46Y46*%
G04 Gerber Fmt 4.6, Leading zero omitted, Abs format (unit mm)*
G04 Created by KiCad (PCBNEW 5.1.12-84ad8e8a86~92~ubuntu18.04.1) date 2022-04-11 08:29:57*
%MOMM*%
%LPD*%
G01*
G04 APERTURE LIST*
G04 #@! TA.AperFunction,ComponentPad*
%ADD10O,1.350000X1.350000*%
G04 #@! TD*
G04 #@! TA.AperFunction,ComponentPad*
%ADD11R,1.350000X1.350000*%
G04 #@! TD*
G04 #@! TA.AperFunction,ComponentPad*
%ADD12O,1.000000X1.000000*%
G04 #@! TD*
G04 #@! TA.AperFunction,ComponentPad*
%ADD13R,1.000000X1.000000*%
G04 #@! TD*
G04 #@! TA.AperFunction,ViaPad*
%ADD14C,0.800000*%
G04 #@! TD*
G04 #@! TA.AperFunction,Conductor*
%ADD15C,0.250000*%
G04 #@! TD*
G04 APERTURE END LIST*
D10*
G04 #@! TO.P,J2,4*
G04 #@! TO.N,Net-(J2-Pad4)*
X7100000Y8442800D03*
G04 #@! TO.P,J2,3*
G04 #@! TO.N,Net-(J2-Pad3)*
X7100000Y6442800D03*
G04 #@! TO.P,J2,2*
G04 #@! TO.N,Net-(J1-Pad4)*
X7100000Y4442800D03*
D11*
G04 #@! TO.P,J2,1*
G04 #@! TO.N,Net-(J2-Pad1)*
X7100000Y2442800D03*
G04 #@! TD*
D12*
G04 #@! TO.P,J1,4*
G04 #@! TO.N,Net-(J1-Pad4)*
X-6870000Y4132800D03*
G04 #@! TO.P,J1,3*
G04 #@! TO.N,Net-(J1-Pad3)*
X-6870000Y5402800D03*
G04 #@! TO.P,J1,2*
G04 #@! TO.N,Net-(J1-Pad2)*
X-6870000Y6672800D03*
D13*
G04 #@! TO.P,J1,1*
G04 #@! TO.N,Net-(J1-Pad1)*
X-6870000Y7942800D03*
G04 #@! TD*
G04 #@! TO.P,U1,8*
G04 #@! TO.N,Net-(J2-Pad4)*
G04 #@! TA.AperFunction,SMDPad,CuDef*
G36*
G01*
X915000Y7792800D02*
X915000Y8092800D01*
G75*
G02*
X1065000Y8242800I150000J0D01*
G01*
X2715000Y8242800D01*
G75*
G02*
X2865000Y8092800I0J-150000D01*
G01*
X2865000Y7792800D01*
G75*
G02*
X2715000Y7642800I-150000J0D01*
G01*
X1065000Y7642800D01*
G75*
G02*
X915000Y7792800I0J150000D01*
G01*
G37*
G04 #@! TD.AperFunction*
G04 #@! TO.P,U1,7*
G04 #@! TO.N,Net-(J2-Pad3)*
G04 #@! TA.AperFunction,SMDPad,CuDef*
G36*
G01*
X915000Y6522800D02*
X915000Y6822800D01*
G75*
G02*
X1065000Y6972800I150000J0D01*
G01*
X2715000Y6972800D01*
G75*
G02*
X2865000Y6822800I0J-150000D01*
G01*
X2865000Y6522800D01*
G75*
G02*
X2715000Y6372800I-150000J0D01*
G01*
X1065000Y6372800D01*
G75*
G02*
X915000Y6522800I0J150000D01*
G01*
G37*
G04 #@! TD.AperFunction*
G04 #@! TO.P,U1,6*
G04 #@! TO.N,Net-(J1-Pad4)*
G04 #@! TA.AperFunction,SMDPad,CuDef*
G36*
G01*
X915000Y5252800D02*
X915000Y5552800D01*
G75*
G02*
X1065000Y5702800I150000J0D01*
G01*
X2715000Y5702800D01*
G75*
G02*
X2865000Y5552800I0J-150000D01*
G01*
X2865000Y5252800D01*
G75*
G02*
X2715000Y5102800I-150000J0D01*
G01*
X1065000Y5102800D01*
G75*
G02*
X915000Y5252800I0J150000D01*
G01*
G37*
G04 #@! TD.AperFunction*
G04 #@! TO.P,U1,5*
G04 #@! TO.N,Net-(J2-Pad1)*
G04 #@! TA.AperFunction,SMDPad,CuDef*
G36*
G01*
X915000Y3982800D02*
X915000Y4282800D01*
G75*
G02*
X1065000Y4432800I150000J0D01*
G01*
X2715000Y4432800D01*
G75*
G02*
X2865000Y4282800I0J-150000D01*
G01*
X2865000Y3982800D01*
G75*
G02*
X2715000Y3832800I-150000J0D01*
G01*
X1065000Y3832800D01*
G75*
G02*
X915000Y3982800I0J150000D01*
G01*
G37*
G04 #@! TD.AperFunction*
G04 #@! TO.P,U1,4*
G04 #@! TO.N,Net-(J1-Pad4)*
G04 #@! TA.AperFunction,SMDPad,CuDef*
G36*
G01*
X-4035000Y3982800D02*
X-4035000Y4282800D01*
G75*
G02*
X-3885000Y4432800I150000J0D01*
G01*
X-2235000Y4432800D01*
G75*
G02*
X-2085000Y4282800I0J-150000D01*
G01*
X-2085000Y3982800D01*
G75*
G02*
X-2235000Y3832800I-150000J0D01*
G01*
X-3885000Y3832800D01*
G75*
G02*
X-4035000Y3982800I0J150000D01*
G01*
G37*
G04 #@! TD.AperFunction*
G04 #@! TO.P,U1,3*
G04 #@! TO.N,Net-(J1-Pad3)*
G04 #@! TA.AperFunction,SMDPad,CuDef*
G36*
G01*
X-4035000Y5252800D02*
X-4035000Y5552800D01*
G75*
G02*
X-3885000Y5702800I150000J0D01*
G01*
X-2235000Y5702800D01*
G75*
G02*
X-2085000Y5552800I0J-150000D01*
G01*
X-2085000Y5252800D01*
G75*
G02*
X-2235000Y5102800I-150000J0D01*
G01*
X-3885000Y5102800D01*
G75*
G02*
X-4035000Y5252800I0J150000D01*
G01*
G37*
G04 #@! TD.AperFunction*
G04 #@! TO.P,U1,2*
G04 #@! TO.N,Net-(J1-Pad2)*
G04 #@! TA.AperFunction,SMDPad,CuDef*
G36*
G01*
X-4035000Y6522800D02*
X-4035000Y6822800D01*
G75*
G02*
X-3885000Y6972800I150000J0D01*
G01*
X-2235000Y6972800D01*
G75*
G02*
X-2085000Y6822800I0J-150000D01*
G01*
X-2085000Y6522800D01*
G75*
G02*
X-2235000Y6372800I-150000J0D01*
G01*
X-3885000Y6372800D01*
G75*
G02*
X-4035000Y6522800I0J150000D01*
G01*
G37*
G04 #@! TD.AperFunction*
G04 #@! TO.P,U1,1*
G04 #@! TO.N,Net-(J1-Pad1)*
G04 #@! TA.AperFunction,SMDPad,CuDef*
G36*
G01*
X-4035000Y7792800D02*
X-4035000Y8092800D01*
G75*
G02*
X-3885000Y8242800I150000J0D01*
G01*
X-2235000Y8242800D01*
G75*
G02*
X-2085000Y8092800I0J-150000D01*
G01*
X-2085000Y7792800D01*
G75*
G02*
X-2235000Y7642800I-150000J0D01*
G01*
X-3885000Y7642800D01*
G75*
G02*
X-4035000Y7792800I0J150000D01*
G01*
G37*
G04 #@! TD.AperFunction*
G04 #@! TD*
D14*
G04 #@! TO.N,*
X0Y-2995200D03*
X0Y14004800D03*
G04 #@! TO.N,Net-(J1-Pad4)*
X4688000Y4442800D03*
G04 #@! TD*
D15*
G04 #@! TO.N,Net-(J1-Pad4)*
X-6870000Y4132800D02*
X-3060000Y4132800D01*
X1890000Y5402800D02*
X3670000Y5402800D01*
X3670000Y5402800D02*
X4630000Y4442800D01*
X4630000Y4442800D02*
X4688000Y4442800D01*
X4688000Y4442800D02*
X7130000Y4442800D01*
G04 #@! TO.N,Net-(J1-Pad3)*
X-6870000Y5402800D02*
X-3060000Y5402800D01*
G04 #@! TO.N,Net-(J1-Pad2)*
X-6870000Y6672800D02*
X-3060000Y6672800D01*
G04 #@! TO.N,Net-(J1-Pad1)*
X-6870000Y7942800D02*
X-3060000Y7942800D01*
G04 #@! TO.N,Net-(J2-Pad4)*
X1890000Y7942800D02*
X3630000Y7942800D01*
X3630000Y7942800D02*
X4130000Y8442800D01*
X4130000Y8442800D02*
X7130000Y8442800D01*
G04 #@! TO.N,Net-(J2-Pad3)*
X1890000Y6672800D02*
X6900000Y6672800D01*
G04 #@! TO.N,Net-(J2-Pad1)*
X1890000Y4132800D02*
X2940000Y4132800D01*
X2940000Y4132800D02*
X4630000Y2442800D01*
X4630000Y2442800D02*
X7130000Y2442800D01*
G04 #@! TD*
M02*
