G04 #@! TF.GenerationSoftware,KiCad,Pcbnew,5.1.12-84ad8e8a86~92~ubuntu18.04.1*
G04 #@! TF.CreationDate,2022-03-07T12:50:17+02:00*
G04 #@! TF.ProjectId,soic,736f6963-2e6b-4696-9361-645f70636258,rev?*
G04 #@! TF.SameCoordinates,Original*
G04 #@! TF.FileFunction,Paste,Top*
G04 #@! TF.FilePolarity,Positive*
%FSLAX46Y46*%
G04 Gerber Fmt 4.6, Leading zero omitted, Abs format (unit mm)*
G04 Created by KiCad (PCBNEW 5.1.12-84ad8e8a86~92~ubuntu18.04.1) date 2022-03-07 12:50:17*
%MOMM*%
%LPD*%
G01*
G04 APERTURE LIST*
G04 APERTURE END LIST*
G04 #@! TO.C,U1*
G36*
G01*
X12665000Y14542800D02*
X12665000Y14842800D01*
G75*
G02*
X12815000Y14992800I150000J0D01*
G01*
X14465000Y14992800D01*
G75*
G02*
X14615000Y14842800I0J-150000D01*
G01*
X14615000Y14542800D01*
G75*
G02*
X14465000Y14392800I-150000J0D01*
G01*
X12815000Y14392800D01*
G75*
G02*
X12665000Y14542800I0J150000D01*
G01*
G37*
G36*
G01*
X12665000Y13272800D02*
X12665000Y13572800D01*
G75*
G02*
X12815000Y13722800I150000J0D01*
G01*
X14465000Y13722800D01*
G75*
G02*
X14615000Y13572800I0J-150000D01*
G01*
X14615000Y13272800D01*
G75*
G02*
X14465000Y13122800I-150000J0D01*
G01*
X12815000Y13122800D01*
G75*
G02*
X12665000Y13272800I0J150000D01*
G01*
G37*
G36*
G01*
X12665000Y12002800D02*
X12665000Y12302800D01*
G75*
G02*
X12815000Y12452800I150000J0D01*
G01*
X14465000Y12452800D01*
G75*
G02*
X14615000Y12302800I0J-150000D01*
G01*
X14615000Y12002800D01*
G75*
G02*
X14465000Y11852800I-150000J0D01*
G01*
X12815000Y11852800D01*
G75*
G02*
X12665000Y12002800I0J150000D01*
G01*
G37*
G36*
G01*
X12665000Y10732800D02*
X12665000Y11032800D01*
G75*
G02*
X12815000Y11182800I150000J0D01*
G01*
X14465000Y11182800D01*
G75*
G02*
X14615000Y11032800I0J-150000D01*
G01*
X14615000Y10732800D01*
G75*
G02*
X14465000Y10582800I-150000J0D01*
G01*
X12815000Y10582800D01*
G75*
G02*
X12665000Y10732800I0J150000D01*
G01*
G37*
G36*
G01*
X7715000Y10732800D02*
X7715000Y11032800D01*
G75*
G02*
X7865000Y11182800I150000J0D01*
G01*
X9515000Y11182800D01*
G75*
G02*
X9665000Y11032800I0J-150000D01*
G01*
X9665000Y10732800D01*
G75*
G02*
X9515000Y10582800I-150000J0D01*
G01*
X7865000Y10582800D01*
G75*
G02*
X7715000Y10732800I0J150000D01*
G01*
G37*
G36*
G01*
X7715000Y12002800D02*
X7715000Y12302800D01*
G75*
G02*
X7865000Y12452800I150000J0D01*
G01*
X9515000Y12452800D01*
G75*
G02*
X9665000Y12302800I0J-150000D01*
G01*
X9665000Y12002800D01*
G75*
G02*
X9515000Y11852800I-150000J0D01*
G01*
X7865000Y11852800D01*
G75*
G02*
X7715000Y12002800I0J150000D01*
G01*
G37*
G36*
G01*
X7715000Y13272800D02*
X7715000Y13572800D01*
G75*
G02*
X7865000Y13722800I150000J0D01*
G01*
X9515000Y13722800D01*
G75*
G02*
X9665000Y13572800I0J-150000D01*
G01*
X9665000Y13272800D01*
G75*
G02*
X9515000Y13122800I-150000J0D01*
G01*
X7865000Y13122800D01*
G75*
G02*
X7715000Y13272800I0J150000D01*
G01*
G37*
G36*
G01*
X7715000Y14542800D02*
X7715000Y14842800D01*
G75*
G02*
X7865000Y14992800I150000J0D01*
G01*
X9515000Y14992800D01*
G75*
G02*
X9665000Y14842800I0J-150000D01*
G01*
X9665000Y14542800D01*
G75*
G02*
X9515000Y14392800I-150000J0D01*
G01*
X7865000Y14392800D01*
G75*
G02*
X7715000Y14542800I0J150000D01*
G01*
G37*
G04 #@! TD*
M02*
