G04 #@! TF.GenerationSoftware,KiCad,Pcbnew,5.1.12-84ad8e8a86~92~ubuntu18.04.1*
G04 #@! TF.CreationDate,2022-03-07T12:50:17+02:00*
G04 #@! TF.ProjectId,soic,736f6963-2e6b-4696-9361-645f70636258,rev?*
G04 #@! TF.SameCoordinates,Original*
G04 #@! TF.FileFunction,Legend,Top*
G04 #@! TF.FilePolarity,Positive*
%FSLAX46Y46*%
G04 Gerber Fmt 4.6, Leading zero omitted, Abs format (unit mm)*
G04 Created by KiCad (PCBNEW 5.1.12-84ad8e8a86~92~ubuntu18.04.1) date 2022-03-07 12:50:17*
%MOMM*%
%LPD*%
G01*
G04 APERTURE LIST*
%ADD10C,0.150000*%
%ADD11C,0.120000*%
G04 APERTURE END LIST*
D10*
X3888571Y6620419D02*
X3888571Y7620419D01*
X3888571Y7144228D02*
X4459999Y7144228D01*
X4459999Y6620419D02*
X4459999Y7620419D01*
X5364761Y6620419D02*
X5364761Y7144228D01*
X5317142Y7239466D01*
X5221904Y7287085D01*
X5031428Y7287085D01*
X4936190Y7239466D01*
X5364761Y6668038D02*
X5269523Y6620419D01*
X5031428Y6620419D01*
X4936190Y6668038D01*
X4888571Y6763276D01*
X4888571Y6858514D01*
X4936190Y6953752D01*
X5031428Y7001371D01*
X5269523Y7001371D01*
X5364761Y7048990D01*
X6269523Y6668038D02*
X6174285Y6620419D01*
X5983809Y6620419D01*
X5888571Y6668038D01*
X5840952Y6715657D01*
X5793333Y6810895D01*
X5793333Y7096609D01*
X5840952Y7191847D01*
X5888571Y7239466D01*
X5983809Y7287085D01*
X6174285Y7287085D01*
X6269523Y7239466D01*
X6698095Y6620419D02*
X6698095Y7620419D01*
X6793333Y7001371D02*
X7079047Y6620419D01*
X7079047Y7287085D02*
X6698095Y6906133D01*
X7650476Y6620419D02*
X7555238Y6668038D01*
X7507619Y6763276D01*
X7507619Y7620419D01*
X8459999Y6620419D02*
X8459999Y7144228D01*
X8412380Y7239466D01*
X8317142Y7287085D01*
X8126666Y7287085D01*
X8031428Y7239466D01*
X8459999Y6668038D02*
X8364761Y6620419D01*
X8126666Y6620419D01*
X8031428Y6668038D01*
X7983809Y6763276D01*
X7983809Y6858514D01*
X8031428Y6953752D01*
X8126666Y7001371D01*
X8364761Y7001371D01*
X8459999Y7048990D01*
X8936190Y6620419D02*
X8936190Y7620419D01*
X8936190Y7239466D02*
X9031428Y7287085D01*
X9221904Y7287085D01*
X9317142Y7239466D01*
X9364761Y7191847D01*
X9412380Y7096609D01*
X9412380Y6810895D01*
X9364761Y6715657D01*
X9317142Y6668038D01*
X9221904Y6620419D01*
X9031428Y6620419D01*
X8936190Y6668038D01*
X10602857Y6620419D02*
X10602857Y7620419D01*
X10602857Y7144228D02*
X11174285Y7144228D01*
X11174285Y6620419D02*
X11174285Y7620419D01*
X12031428Y6668038D02*
X11936190Y6620419D01*
X11745714Y6620419D01*
X11650476Y6668038D01*
X11602857Y6763276D01*
X11602857Y7144228D01*
X11650476Y7239466D01*
X11745714Y7287085D01*
X11936190Y7287085D01*
X12031428Y7239466D01*
X12079047Y7144228D01*
X12079047Y7048990D01*
X11602857Y6953752D01*
X12650476Y6620419D02*
X12555238Y6668038D01*
X12507619Y6763276D01*
X12507619Y7620419D01*
X12983809Y6668038D02*
X13079047Y6620419D01*
X13269523Y6620419D01*
X13364761Y6668038D01*
X13412380Y6763276D01*
X13412380Y6810895D01*
X13364761Y6906133D01*
X13269523Y6953752D01*
X13126666Y6953752D01*
X13031428Y7001371D01*
X12983809Y7096609D01*
X12983809Y7144228D01*
X13031428Y7239466D01*
X13126666Y7287085D01*
X13269523Y7287085D01*
X13364761Y7239466D01*
X13840952Y6620419D02*
X13840952Y7287085D01*
X13840952Y7620419D02*
X13793333Y7572800D01*
X13840952Y7525180D01*
X13888571Y7572800D01*
X13840952Y7620419D01*
X13840952Y7525180D01*
X14317142Y7287085D02*
X14317142Y6620419D01*
X14317142Y7191847D02*
X14364761Y7239466D01*
X14459999Y7287085D01*
X14602857Y7287085D01*
X14698095Y7239466D01*
X14745714Y7144228D01*
X14745714Y6620419D01*
X15221904Y6620419D02*
X15221904Y7620419D01*
X15317142Y7001371D02*
X15602857Y6620419D01*
X15602857Y7287085D02*
X15221904Y6906133D01*
X16031428Y6620419D02*
X16031428Y7287085D01*
X16031428Y7620419D02*
X15983809Y7572800D01*
X16031428Y7525180D01*
X16079047Y7572800D01*
X16031428Y7620419D01*
X16031428Y7525180D01*
D11*
G04 #@! TO.C,J2*
X19910000Y8132800D02*
X18850000Y8132800D01*
X19910000Y9192800D02*
X19910000Y8132800D01*
X19910000Y10192800D02*
X17790000Y10192800D01*
X17790000Y10192800D02*
X17790000Y16252800D01*
X19910000Y10192800D02*
X19910000Y16252800D01*
X19910000Y16252800D02*
X17790000Y16252800D01*
G04 #@! TO.C,J1*
X3770000Y15452800D02*
X4880000Y15452800D01*
X3770000Y14692800D02*
X3770000Y15452800D01*
X5443471Y13932800D02*
X5990000Y13932800D01*
X3770000Y13932800D02*
X4316529Y13932800D01*
X5990000Y13932800D02*
X5990000Y10187800D01*
X3770000Y13932800D02*
X3770000Y10187800D01*
X5187530Y10187800D02*
X5990000Y10187800D01*
X3770000Y10187800D02*
X4572470Y10187800D01*
G04 #@! TO.C,U1*
X11165000Y15347800D02*
X7715000Y15347800D01*
X11165000Y15347800D02*
X13115000Y15347800D01*
X11165000Y10227800D02*
X9215000Y10227800D01*
X11165000Y10227800D02*
X13115000Y10227800D01*
G04 #@! TO.C,H4*
D10*
X-761904Y2752419D02*
X-761904Y3752419D01*
X-761904Y3276228D02*
X-190476Y3276228D01*
X-190476Y2752419D02*
X-190476Y3752419D01*
X714285Y3419085D02*
X714285Y2752419D01*
X476190Y3800038D02*
X238095Y3085752D01*
X857142Y3085752D01*
G04 #@! TO.C,H3*
X-761904Y30502419D02*
X-761904Y31502419D01*
X-761904Y31026228D02*
X-190476Y31026228D01*
X-190476Y30502419D02*
X-190476Y31502419D01*
X190476Y31502419D02*
X809523Y31502419D01*
X476190Y31121466D01*
X619047Y31121466D01*
X714285Y31073847D01*
X761904Y31026228D01*
X809523Y30930990D01*
X809523Y30692895D01*
X761904Y30597657D01*
X714285Y30550038D01*
X619047Y30502419D01*
X333333Y30502419D01*
X238095Y30550038D01*
X190476Y30597657D01*
G04 #@! TO.C,H2*
X23118095Y15240419D02*
X23118095Y16240419D01*
X23118095Y15764228D02*
X23689523Y15764228D01*
X23689523Y15240419D02*
X23689523Y16240419D01*
X24118095Y16145180D02*
X24165714Y16192800D01*
X24260952Y16240419D01*
X24499047Y16240419D01*
X24594285Y16192800D01*
X24641904Y16145180D01*
X24689523Y16049942D01*
X24689523Y15954704D01*
X24641904Y15811847D01*
X24070476Y15240419D01*
X24689523Y15240419D01*
G04 #@! TO.C,H1*
X-881904Y15240419D02*
X-881904Y16240419D01*
X-881904Y15764228D02*
X-310476Y15764228D01*
X-310476Y15240419D02*
X-310476Y16240419D01*
X689523Y15240419D02*
X118095Y15240419D01*
X403809Y15240419D02*
X403809Y16240419D01*
X308571Y16097561D01*
X213333Y16002323D01*
X118095Y15954704D01*
G04 #@! TO.C,J2*
X18516666Y17780419D02*
X18516666Y17066133D01*
X18469047Y16923276D01*
X18373809Y16828038D01*
X18230952Y16780419D01*
X18135714Y16780419D01*
X18945238Y17685180D02*
X18992857Y17732800D01*
X19088095Y17780419D01*
X19326190Y17780419D01*
X19421428Y17732800D01*
X19469047Y17685180D01*
X19516666Y17589942D01*
X19516666Y17494704D01*
X19469047Y17351847D01*
X18897619Y16780419D01*
X19516666Y16780419D01*
G04 #@! TO.C,J1*
X4296666Y16990419D02*
X4296666Y16276133D01*
X4249047Y16133276D01*
X4153809Y16038038D01*
X4010952Y15990419D01*
X3915714Y15990419D01*
X5296666Y15990419D02*
X4725238Y15990419D01*
X5010952Y15990419D02*
X5010952Y16990419D01*
X4915714Y16847561D01*
X4820476Y16752323D01*
X4725238Y16704704D01*
G04 #@! TO.C,U1*
X10403095Y16735419D02*
X10403095Y15925895D01*
X10450714Y15830657D01*
X10498333Y15783038D01*
X10593571Y15735419D01*
X10784047Y15735419D01*
X10879285Y15783038D01*
X10926904Y15830657D01*
X10974523Y15925895D01*
X10974523Y16735419D01*
X11974523Y15735419D02*
X11403095Y15735419D01*
X11688809Y15735419D02*
X11688809Y16735419D01*
X11593571Y16592561D01*
X11498333Y16497323D01*
X11403095Y16449704D01*
G04 #@! TD*
M02*
