G04 #@! TF.GenerationSoftware,KiCad,Pcbnew,5.1.12-84ad8e8a86~92~ubuntu18.04.1*
G04 #@! TF.CreationDate,2022-02-25T15:15:52+02:00*
G04 #@! TF.ProjectId,pad2pad,70616432-7061-4642-9e6b-696361645f70,rev?*
G04 #@! TF.SameCoordinates,Original*
G04 #@! TF.FileFunction,Legend,Top*
G04 #@! TF.FilePolarity,Positive*
%FSLAX46Y46*%
G04 Gerber Fmt 4.6, Leading zero omitted, Abs format (unit mm)*
G04 Created by KiCad (PCBNEW 5.1.12-84ad8e8a86~92~ubuntu18.04.1) date 2022-02-25 15:15:52*
%MOMM*%
%LPD*%
G01*
G04 APERTURE LIST*
%ADD10C,0.150000*%
G04 APERTURE END LIST*
D10*
X5059523Y4864285D02*
X5059523Y3864285D01*
X5059523Y4816666D02*
X5154761Y4864285D01*
X5345238Y4864285D01*
X5440476Y4816666D01*
X5488095Y4769047D01*
X5535714Y4673809D01*
X5535714Y4388095D01*
X5488095Y4292857D01*
X5440476Y4245238D01*
X5345238Y4197619D01*
X5154761Y4197619D01*
X5059523Y4245238D01*
X6392857Y4197619D02*
X6392857Y4721428D01*
X6345238Y4816666D01*
X6250000Y4864285D01*
X6059523Y4864285D01*
X5964285Y4816666D01*
X6392857Y4245238D02*
X6297619Y4197619D01*
X6059523Y4197619D01*
X5964285Y4245238D01*
X5916666Y4340476D01*
X5916666Y4435714D01*
X5964285Y4530952D01*
X6059523Y4578571D01*
X6297619Y4578571D01*
X6392857Y4626190D01*
X7297619Y4197619D02*
X7297619Y5197619D01*
X7297619Y4245238D02*
X7202380Y4197619D01*
X7011904Y4197619D01*
X6916666Y4245238D01*
X6869047Y4292857D01*
X6821428Y4388095D01*
X6821428Y4673809D01*
X6869047Y4769047D01*
X6916666Y4816666D01*
X7011904Y4864285D01*
X7202380Y4864285D01*
X7297619Y4816666D01*
X9059523Y4197619D02*
X8488095Y4197619D01*
X8773809Y4197619D02*
X8773809Y5197619D01*
X8678571Y5054761D01*
X8583333Y4959523D01*
X8488095Y4911904D01*
X9392857Y4197619D02*
X9916666Y4864285D01*
X9392857Y4864285D02*
X9916666Y4197619D01*
X10250000Y5102380D02*
X10297619Y5150000D01*
X10392857Y5197619D01*
X10630952Y5197619D01*
X10726190Y5150000D01*
X10773809Y5102380D01*
X10821428Y5007142D01*
X10821428Y4911904D01*
X10773809Y4769047D01*
X10202380Y4197619D01*
X10821428Y4197619D01*
X11250000Y4197619D02*
X11250000Y4864285D01*
X11250000Y4769047D02*
X11297619Y4816666D01*
X11392857Y4864285D01*
X11535714Y4864285D01*
X11630952Y4816666D01*
X11678571Y4721428D01*
X11678571Y4197619D01*
X11678571Y4721428D02*
X11726190Y4816666D01*
X11821428Y4864285D01*
X11964285Y4864285D01*
X12059523Y4816666D01*
X12107142Y4721428D01*
X12107142Y4197619D01*
X12583333Y4197619D02*
X12583333Y4864285D01*
X12583333Y4769047D02*
X12630952Y4816666D01*
X12726190Y4864285D01*
X12869047Y4864285D01*
X12964285Y4816666D01*
X13011904Y4721428D01*
X13011904Y4197619D01*
X13011904Y4721428D02*
X13059523Y4816666D01*
X13154761Y4864285D01*
X13297619Y4864285D01*
X13392857Y4816666D01*
X13440476Y4721428D01*
X13440476Y4197619D01*
X4178571Y3214285D02*
X4559523Y3214285D01*
X4321428Y3547619D02*
X4321428Y2690476D01*
X4369047Y2595238D01*
X4464285Y2547619D01*
X4559523Y2547619D01*
X4892857Y2547619D02*
X4892857Y3214285D01*
X4892857Y3023809D02*
X4940476Y3119047D01*
X4988095Y3166666D01*
X5083333Y3214285D01*
X5178571Y3214285D01*
X5940476Y2547619D02*
X5940476Y3071428D01*
X5892857Y3166666D01*
X5797619Y3214285D01*
X5607142Y3214285D01*
X5511904Y3166666D01*
X5940476Y2595238D02*
X5845238Y2547619D01*
X5607142Y2547619D01*
X5511904Y2595238D01*
X5464285Y2690476D01*
X5464285Y2785714D01*
X5511904Y2880952D01*
X5607142Y2928571D01*
X5845238Y2928571D01*
X5940476Y2976190D01*
X6845238Y2595238D02*
X6749999Y2547619D01*
X6559523Y2547619D01*
X6464285Y2595238D01*
X6416666Y2642857D01*
X6369047Y2738095D01*
X6369047Y3023809D01*
X6416666Y3119047D01*
X6464285Y3166666D01*
X6559523Y3214285D01*
X6749999Y3214285D01*
X6845238Y3166666D01*
X7273809Y2547619D02*
X7273809Y3547619D01*
X7369047Y2928571D02*
X7654761Y2547619D01*
X7654761Y3214285D02*
X7273809Y2833333D01*
X9035714Y3547619D02*
X9130952Y3547619D01*
X9226190Y3500000D01*
X9273809Y3452380D01*
X9321428Y3357142D01*
X9369047Y3166666D01*
X9369047Y2928571D01*
X9321428Y2738095D01*
X9273809Y2642857D01*
X9226190Y2595238D01*
X9130952Y2547619D01*
X9035714Y2547619D01*
X8940476Y2595238D01*
X8892857Y2642857D01*
X8845238Y2738095D01*
X8797619Y2928571D01*
X8797619Y3166666D01*
X8845238Y3357142D01*
X8892857Y3452380D01*
X8940476Y3500000D01*
X9035714Y3547619D01*
X9797619Y2642857D02*
X9845238Y2595238D01*
X9797619Y2547619D01*
X9750000Y2595238D01*
X9797619Y2642857D01*
X9797619Y2547619D01*
X10750000Y3547619D02*
X10273809Y3547619D01*
X10226190Y3071428D01*
X10273809Y3119047D01*
X10369047Y3166666D01*
X10607142Y3166666D01*
X10702380Y3119047D01*
X10750000Y3071428D01*
X10797619Y2976190D01*
X10797619Y2738095D01*
X10750000Y2642857D01*
X10702380Y2595238D01*
X10607142Y2547619D01*
X10369047Y2547619D01*
X10273809Y2595238D01*
X10226190Y2642857D01*
X11988095Y2547619D02*
X11988095Y3214285D01*
X11988095Y3119047D02*
X12035714Y3166666D01*
X12130952Y3214285D01*
X12273809Y3214285D01*
X12369047Y3166666D01*
X12416666Y3071428D01*
X12416666Y2547619D01*
X12416666Y3071428D02*
X12464285Y3166666D01*
X12559523Y3214285D01*
X12702380Y3214285D01*
X12797619Y3166666D01*
X12845238Y3071428D01*
X12845238Y2547619D01*
X13321428Y2547619D02*
X13321428Y3214285D01*
X13321428Y3119047D02*
X13369047Y3166666D01*
X13464285Y3214285D01*
X13607142Y3214285D01*
X13702380Y3166666D01*
X13750000Y3071428D01*
X13750000Y2547619D01*
X13750000Y3071428D02*
X13797619Y3166666D01*
X13892857Y3214285D01*
X14035714Y3214285D01*
X14130952Y3166666D01*
X14178571Y3071428D01*
X14178571Y2547619D01*
G04 #@! TO.C,J2*
X4666666Y8297619D02*
X4666666Y7583333D01*
X4619047Y7440476D01*
X4523809Y7345238D01*
X4380952Y7297619D01*
X4285714Y7297619D01*
X5095238Y8202380D02*
X5142857Y8250000D01*
X5238095Y8297619D01*
X5476190Y8297619D01*
X5571428Y8250000D01*
X5619047Y8202380D01*
X5666666Y8107142D01*
X5666666Y8011904D01*
X5619047Y7869047D01*
X5047619Y7297619D01*
X5666666Y7297619D01*
G04 #@! TO.C,J1*
X13446666Y8297619D02*
X13446666Y7583333D01*
X13399047Y7440476D01*
X13303809Y7345238D01*
X13160952Y7297619D01*
X13065714Y7297619D01*
X14446666Y7297619D02*
X13875238Y7297619D01*
X14160952Y7297619D02*
X14160952Y8297619D01*
X14065714Y8154761D01*
X13970476Y8059523D01*
X13875238Y8011904D01*
G04 #@! TD*
M02*
