G04 #@! TF.GenerationSoftware,KiCad,Pcbnew,5.1.12-84ad8e8a86~92~ubuntu18.04.1*
G04 #@! TF.CreationDate,2022-07-18T14:02:34+03:00*
G04 #@! TF.ProjectId,pad2pad,70616432-7061-4642-9e6b-696361645f70,rev?*
G04 #@! TF.SameCoordinates,Original*
G04 #@! TF.FileFunction,Legend,Top*
G04 #@! TF.FilePolarity,Positive*
%FSLAX46Y46*%
G04 Gerber Fmt 4.6, Leading zero omitted, Abs format (unit mm)*
G04 Created by KiCad (PCBNEW 5.1.12-84ad8e8a86~92~ubuntu18.04.1) date 2022-07-18 14:02:34*
%MOMM*%
%LPD*%
G01*
G04 APERTURE LIST*
%ADD10C,0.120000*%
%ADD11C,0.150000*%
G04 APERTURE END LIST*
D10*
G04 #@! TO.C,R1*
X7847064Y8380000D02*
X7392936Y8380000D01*
X7847064Y6910000D02*
X7392936Y6910000D01*
G04 #@! TO.C,J1*
X1210000Y1210000D02*
X1210000Y2540000D01*
X2540000Y1210000D02*
X1210000Y1210000D01*
X3810000Y1210000D02*
X3810000Y3870000D01*
X3810000Y3870000D02*
X6410000Y3870000D01*
X3810000Y1210000D02*
X6410000Y1210000D01*
X6410000Y1210000D02*
X6410000Y3870000D01*
G04 #@! TO.C,D1*
X4225000Y8580000D02*
X1540000Y8580000D01*
X4225000Y6660000D02*
X4225000Y8580000D01*
X1540000Y6660000D02*
X4225000Y6660000D01*
G04 #@! TO.C,R1*
D11*
X6843333Y5297619D02*
X6510000Y5773809D01*
X6271904Y5297619D02*
X6271904Y6297619D01*
X6652857Y6297619D01*
X6748095Y6250000D01*
X6795714Y6202380D01*
X6843333Y6107142D01*
X6843333Y5964285D01*
X6795714Y5869047D01*
X6748095Y5821428D01*
X6652857Y5773809D01*
X6271904Y5773809D01*
X7795714Y5297619D02*
X7224285Y5297619D01*
X7510000Y5297619D02*
X7510000Y6297619D01*
X7414761Y6154761D01*
X7319523Y6059523D01*
X7224285Y6011904D01*
G04 #@! TO.C,J1*
X7306666Y1987619D02*
X7306666Y1273333D01*
X7259047Y1130476D01*
X7163809Y1035238D01*
X7020952Y987619D01*
X6925714Y987619D01*
X8306666Y987619D02*
X7735238Y987619D01*
X8020952Y987619D02*
X8020952Y1987619D01*
X7925714Y1844761D01*
X7830476Y1749523D01*
X7735238Y1701904D01*
G04 #@! TO.C,D1*
X2261904Y5347619D02*
X2261904Y6347619D01*
X2500000Y6347619D01*
X2642857Y6300000D01*
X2738095Y6204761D01*
X2785714Y6109523D01*
X2833333Y5919047D01*
X2833333Y5776190D01*
X2785714Y5585714D01*
X2738095Y5490476D01*
X2642857Y5395238D01*
X2500000Y5347619D01*
X2261904Y5347619D01*
X3785714Y5347619D02*
X3214285Y5347619D01*
X3500000Y5347619D02*
X3500000Y6347619D01*
X3404761Y6204761D01*
X3309523Y6109523D01*
X3214285Y6061904D01*
G04 #@! TD*
M02*
