G04 #@! TF.GenerationSoftware,KiCad,Pcbnew,5.1.12-84ad8e8a86~92~ubuntu18.04.1*
G04 #@! TF.CreationDate,2022-08-11T13:09:11+03:00*
G04 #@! TF.ProjectId,pad2pad,70616432-7061-4642-9e6b-696361645f70,rev?*
G04 #@! TF.SameCoordinates,Original*
G04 #@! TF.FileFunction,Legend,Bot*
G04 #@! TF.FilePolarity,Positive*
%FSLAX46Y46*%
G04 Gerber Fmt 4.6, Leading zero omitted, Abs format (unit mm)*
G04 Created by KiCad (PCBNEW 5.1.12-84ad8e8a86~92~ubuntu18.04.1) date 2022-08-11 13:09:11*
%MOMM*%
%LPD*%
G01*
G04 APERTURE LIST*
%ADD10C,0.120000*%
%ADD11C,0.150000*%
G04 APERTURE END LIST*
D10*
X10000000Y10000000D02*
X10000000Y9800000D01*
X9800000Y10000000D02*
X10000000Y10000000D01*
X0Y0D02*
X200000Y0D01*
X0Y200000D02*
X0Y0D01*
D11*
X9770476Y5904285D02*
X9770476Y4904285D01*
X9770476Y5856666D02*
X9675238Y5904285D01*
X9484761Y5904285D01*
X9389523Y5856666D01*
X9341904Y5809047D01*
X9294285Y5713809D01*
X9294285Y5428095D01*
X9341904Y5332857D01*
X9389523Y5285238D01*
X9484761Y5237619D01*
X9675238Y5237619D01*
X9770476Y5285238D01*
X8437142Y5237619D02*
X8437142Y5761428D01*
X8484761Y5856666D01*
X8580000Y5904285D01*
X8770476Y5904285D01*
X8865714Y5856666D01*
X8437142Y5285238D02*
X8532380Y5237619D01*
X8770476Y5237619D01*
X8865714Y5285238D01*
X8913333Y5380476D01*
X8913333Y5475714D01*
X8865714Y5570952D01*
X8770476Y5618571D01*
X8532380Y5618571D01*
X8437142Y5666190D01*
X7532380Y5237619D02*
X7532380Y6237619D01*
X7532380Y5285238D02*
X7627619Y5237619D01*
X7818095Y5237619D01*
X7913333Y5285238D01*
X7960952Y5332857D01*
X8008571Y5428095D01*
X8008571Y5713809D01*
X7960952Y5809047D01*
X7913333Y5856666D01*
X7818095Y5904285D01*
X7627619Y5904285D01*
X7532380Y5856666D01*
X5770476Y5237619D02*
X6341904Y5237619D01*
X6056190Y5237619D02*
X6056190Y6237619D01*
X6151428Y6094761D01*
X6246666Y5999523D01*
X6341904Y5951904D01*
X5437142Y5237619D02*
X4913333Y5904285D01*
X5437142Y5904285D02*
X4913333Y5237619D01*
X4579999Y6142380D02*
X4532380Y6190000D01*
X4437142Y6237619D01*
X4199047Y6237619D01*
X4103809Y6190000D01*
X4056190Y6142380D01*
X4008571Y6047142D01*
X4008571Y5951904D01*
X4056190Y5809047D01*
X4627619Y5237619D01*
X4008571Y5237619D01*
X3579999Y5237619D02*
X3579999Y5904285D01*
X3579999Y5809047D02*
X3532380Y5856666D01*
X3437142Y5904285D01*
X3294285Y5904285D01*
X3199047Y5856666D01*
X3151428Y5761428D01*
X3151428Y5237619D01*
X3151428Y5761428D02*
X3103809Y5856666D01*
X3008571Y5904285D01*
X2865714Y5904285D01*
X2770476Y5856666D01*
X2722857Y5761428D01*
X2722857Y5237619D01*
X2246666Y5237619D02*
X2246666Y5904285D01*
X2246666Y5809047D02*
X2199047Y5856666D01*
X2103809Y5904285D01*
X1960952Y5904285D01*
X1865714Y5856666D01*
X1818095Y5761428D01*
X1818095Y5237619D01*
X1818095Y5761428D02*
X1770476Y5856666D01*
X1675238Y5904285D01*
X1532380Y5904285D01*
X1437142Y5856666D01*
X1389523Y5761428D01*
X1389523Y5237619D01*
X9770476Y4254285D02*
X9389523Y4254285D01*
X9627619Y4587619D02*
X9627619Y3730476D01*
X9580000Y3635238D01*
X9484761Y3587619D01*
X9389523Y3587619D01*
X9056190Y3587619D02*
X9056190Y4254285D01*
X9056190Y4063809D02*
X9008571Y4159047D01*
X8960952Y4206666D01*
X8865714Y4254285D01*
X8770476Y4254285D01*
X8437142Y3587619D02*
X8437142Y4587619D01*
X8341904Y3968571D02*
X8056190Y3587619D01*
X8056190Y4254285D02*
X8437142Y3873333D01*
X6675238Y4587619D02*
X6580000Y4587619D01*
X6484761Y4540000D01*
X6437142Y4492380D01*
X6389523Y4397142D01*
X6341904Y4206666D01*
X6341904Y3968571D01*
X6389523Y3778095D01*
X6437142Y3682857D01*
X6484761Y3635238D01*
X6580000Y3587619D01*
X6675238Y3587619D01*
X6770476Y3635238D01*
X6818095Y3682857D01*
X6865714Y3778095D01*
X6913333Y3968571D01*
X6913333Y4206666D01*
X6865714Y4397142D01*
X6818095Y4492380D01*
X6770476Y4540000D01*
X6675238Y4587619D01*
X5913333Y3682857D02*
X5865714Y3635238D01*
X5913333Y3587619D01*
X5960952Y3635238D01*
X5913333Y3682857D01*
X5913333Y3587619D01*
X4960952Y4587619D02*
X5437142Y4587619D01*
X5484761Y4111428D01*
X5437142Y4159047D01*
X5341904Y4206666D01*
X5103809Y4206666D01*
X5008571Y4159047D01*
X4960952Y4111428D01*
X4913333Y4016190D01*
X4913333Y3778095D01*
X4960952Y3682857D01*
X5008571Y3635238D01*
X5103809Y3587619D01*
X5341904Y3587619D01*
X5437142Y3635238D01*
X5484761Y3682857D01*
X3722857Y3587619D02*
X3722857Y4254285D01*
X3722857Y4159047D02*
X3675238Y4206666D01*
X3579999Y4254285D01*
X3437142Y4254285D01*
X3341904Y4206666D01*
X3294285Y4111428D01*
X3294285Y3587619D01*
X3294285Y4111428D02*
X3246666Y4206666D01*
X3151428Y4254285D01*
X3008571Y4254285D01*
X2913333Y4206666D01*
X2865714Y4111428D01*
X2865714Y3587619D01*
X2389523Y3587619D02*
X2389523Y4254285D01*
X2389523Y4159047D02*
X2341904Y4206666D01*
X2246666Y4254285D01*
X2103809Y4254285D01*
X2008571Y4206666D01*
X1960952Y4111428D01*
X1960952Y3587619D01*
X1960952Y4111428D02*
X1913333Y4206666D01*
X1818095Y4254285D01*
X1675238Y4254285D01*
X1580000Y4206666D01*
X1532380Y4111428D01*
X1532380Y3587619D01*
M02*
