G04 #@! TF.GenerationSoftware,KiCad,Pcbnew,5.1.12-84ad8e8a86~92~ubuntu18.04.1*
G04 #@! TF.CreationDate,2022-06-22T22:22:51+03:00*
G04 #@! TF.ProjectId,dip,6469702e-6b69-4636-9164-5f7063625858,B*
G04 #@! TF.SameCoordinates,Original*
G04 #@! TF.FileFunction,Copper,L2,Bot*
G04 #@! TF.FilePolarity,Positive*
%FSLAX46Y46*%
G04 Gerber Fmt 4.6, Leading zero omitted, Abs format (unit mm)*
G04 Created by KiCad (PCBNEW 5.1.12-84ad8e8a86~92~ubuntu18.04.1) date 2022-06-22 22:22:51*
%MOMM*%
%LPD*%
G01*
G04 APERTURE LIST*
G04 #@! TA.AperFunction,ComponentPad*
%ADD10O,1.600000X1.600000*%
G04 #@! TD*
G04 #@! TA.AperFunction,ComponentPad*
%ADD11R,1.600000X1.600000*%
G04 #@! TD*
G04 #@! TA.AperFunction,ComponentPad*
%ADD12O,1.000000X1.000000*%
G04 #@! TD*
G04 #@! TA.AperFunction,ComponentPad*
%ADD13R,1.000000X1.000000*%
G04 #@! TD*
G04 #@! TA.AperFunction,Conductor*
%ADD14C,0.500000*%
G04 #@! TD*
G04 APERTURE END LIST*
D10*
G04 #@! TO.P,SW1,8*
G04 #@! TO.N,Net-(J2-Pad4)*
X24100000Y13880000D03*
G04 #@! TO.P,SW1,4*
G04 #@! TO.N,Net-(J1-Pad4)*
X16480000Y6260000D03*
G04 #@! TO.P,SW1,7*
G04 #@! TO.N,Net-(J2-Pad3)*
X24100000Y11340000D03*
G04 #@! TO.P,SW1,3*
G04 #@! TO.N,Net-(J1-Pad3)*
X16480000Y8800000D03*
G04 #@! TO.P,SW1,6*
G04 #@! TO.N,Net-(J2-Pad2)*
X24100000Y8800000D03*
G04 #@! TO.P,SW1,2*
G04 #@! TO.N,Net-(J1-Pad2)*
X16480000Y11340000D03*
G04 #@! TO.P,SW1,5*
G04 #@! TO.N,Net-(J2-Pad1)*
X24100000Y6260000D03*
D11*
G04 #@! TO.P,SW1,1*
G04 #@! TO.N,Net-(J1-Pad1)*
X16480000Y13880000D03*
G04 #@! TD*
D12*
G04 #@! TO.P,J2,4*
G04 #@! TO.N,Net-(J2-Pad4)*
X31000000Y12060000D03*
G04 #@! TO.P,J2,3*
G04 #@! TO.N,Net-(J2-Pad3)*
X31000000Y10790000D03*
G04 #@! TO.P,J2,2*
G04 #@! TO.N,Net-(J2-Pad2)*
X31000000Y9520000D03*
D13*
G04 #@! TO.P,J2,1*
G04 #@! TO.N,Net-(J2-Pad1)*
X31000000Y8250000D03*
G04 #@! TD*
D12*
G04 #@! TO.P,J1,4*
G04 #@! TO.N,Net-(J1-Pad4)*
X7750000Y8940000D03*
G04 #@! TO.P,J1,3*
G04 #@! TO.N,Net-(J1-Pad3)*
X7750000Y10210000D03*
G04 #@! TO.P,J1,2*
G04 #@! TO.N,Net-(J1-Pad2)*
X7750000Y11480000D03*
D13*
G04 #@! TO.P,J1,1*
G04 #@! TO.N,Net-(J1-Pad1)*
X7750000Y12750000D03*
G04 #@! TD*
D14*
G04 #@! TO.N,Net-(J1-Pad4)*
X12250000Y9000000D02*
X7500000Y9000000D01*
X16480000Y6260000D02*
X14990000Y6260000D01*
X14990000Y6260000D02*
X12250000Y9000000D01*
G04 #@! TO.N,Net-(J1-Pad3)*
X16480000Y8800000D02*
X15450000Y8800000D01*
X15450000Y8800000D02*
X14000000Y10250000D01*
X13960000Y10210000D02*
X14000000Y10250000D01*
X7750000Y10210000D02*
X13960000Y10210000D01*
G04 #@! TO.N,Net-(J1-Pad2)*
X7750000Y11480000D02*
X16480000Y11480000D01*
G04 #@! TO.N,Net-(J1-Pad1)*
X16480000Y13880000D02*
X13130000Y13880000D01*
X13130000Y13880000D02*
X12000000Y12750000D01*
X12000000Y12750000D02*
X7750000Y12750000D01*
G04 #@! TO.N,Net-(J2-Pad4)*
X24100000Y13880000D02*
X26120000Y13880000D01*
X26120000Y13880000D02*
X28000000Y12000000D01*
X28000000Y12000000D02*
X31000000Y12000000D01*
G04 #@! TO.N,Net-(J2-Pad3)*
X31000000Y10790000D02*
X24710000Y10790000D01*
X24710000Y10790000D02*
X24000000Y11500000D01*
G04 #@! TO.N,Net-(J2-Pad2)*
X24100000Y8800000D02*
X28050000Y8800000D01*
X28050000Y8800000D02*
X28750000Y9500000D01*
X28750000Y9500000D02*
X31000000Y9500000D01*
G04 #@! TO.N,Net-(J2-Pad1)*
X31000000Y8250000D02*
X29500000Y8250000D01*
X29500000Y8250000D02*
X27500000Y6250000D01*
X27490000Y6260000D02*
X27500000Y6250000D01*
X24100000Y6260000D02*
X27490000Y6260000D01*
G04 #@! TD*
M02*
