G04 #@! TF.GenerationSoftware,KiCad,Pcbnew,5.1.12-84ad8e8a86~92~ubuntu18.04.1*
G04 #@! TF.CreationDate,2022-03-16T13:03:40+02:00*
G04 #@! TF.ProjectId,dip,6469702e-6b69-4636-9164-5f7063625858,rev?*
G04 #@! TF.SameCoordinates,Original*
G04 #@! TF.FileFunction,Legend,Top*
G04 #@! TF.FilePolarity,Positive*
%FSLAX46Y46*%
G04 Gerber Fmt 4.6, Leading zero omitted, Abs format (unit mm)*
G04 Created by KiCad (PCBNEW 5.1.12-84ad8e8a86~92~ubuntu18.04.1) date 2022-03-16 13:03:40*
%MOMM*%
%LPD*%
G01*
G04 APERTURE LIST*
%ADD10C,0.120000*%
%ADD11C,0.150000*%
G04 APERTURE END LIST*
D10*
G04 #@! TO.C,SW1*
X22940000Y15210000D02*
X21290000Y15210000D01*
X22940000Y4930000D02*
X22940000Y15210000D01*
X17640000Y4930000D02*
X22940000Y4930000D01*
X17640000Y15210000D02*
X17640000Y4930000D01*
X19290000Y15210000D02*
X17640000Y15210000D01*
X21290000Y15210000D02*
G75*
G02*
X19290000Y15210000I-1000000J0D01*
G01*
G04 #@! TO.C,J2*
X32110000Y7490000D02*
X31000000Y7490000D01*
X32110000Y8250000D02*
X32110000Y7490000D01*
X30436529Y9010000D02*
X29890000Y9010000D01*
X32110000Y9010000D02*
X31563471Y9010000D01*
X29890000Y9010000D02*
X29890000Y12755000D01*
X32110000Y9010000D02*
X32110000Y12755000D01*
X30692470Y12755000D02*
X29890000Y12755000D01*
X32110000Y12755000D02*
X31307530Y12755000D01*
G04 #@! TO.C,J1*
X6640000Y13510000D02*
X7750000Y13510000D01*
X6640000Y12750000D02*
X6640000Y13510000D01*
X8313471Y11990000D02*
X8860000Y11990000D01*
X6640000Y11990000D02*
X7186529Y11990000D01*
X8860000Y11990000D02*
X8860000Y8245000D01*
X6640000Y11990000D02*
X6640000Y8245000D01*
X8057530Y8245000D02*
X8860000Y8245000D01*
X6640000Y8245000D02*
X7442470Y8245000D01*
G04 #@! TO.C,H2*
D11*
X36488095Y20297619D02*
X36488095Y21297619D01*
X36488095Y20821428D02*
X37059523Y20821428D01*
X37059523Y20297619D02*
X37059523Y21297619D01*
X37488095Y21202380D02*
X37535714Y21250000D01*
X37630952Y21297619D01*
X37869047Y21297619D01*
X37964285Y21250000D01*
X38011904Y21202380D01*
X38059523Y21107142D01*
X38059523Y21011904D01*
X38011904Y20869047D01*
X37440476Y20297619D01*
X38059523Y20297619D01*
G04 #@! TO.C,H1*
X2238095Y5797619D02*
X2238095Y6797619D01*
X2238095Y6321428D02*
X2809523Y6321428D01*
X2809523Y5797619D02*
X2809523Y6797619D01*
X3809523Y5797619D02*
X3238095Y5797619D01*
X3523809Y5797619D02*
X3523809Y6797619D01*
X3428571Y6654761D01*
X3333333Y6559523D01*
X3238095Y6511904D01*
G04 #@! TO.C,SW1*
X18956666Y15805238D02*
X19099523Y15757619D01*
X19337619Y15757619D01*
X19432857Y15805238D01*
X19480476Y15852857D01*
X19528095Y15948095D01*
X19528095Y16043333D01*
X19480476Y16138571D01*
X19432857Y16186190D01*
X19337619Y16233809D01*
X19147142Y16281428D01*
X19051904Y16329047D01*
X19004285Y16376666D01*
X18956666Y16471904D01*
X18956666Y16567142D01*
X19004285Y16662380D01*
X19051904Y16710000D01*
X19147142Y16757619D01*
X19385238Y16757619D01*
X19528095Y16710000D01*
X19861428Y16757619D02*
X20099523Y15757619D01*
X20290000Y16471904D01*
X20480476Y15757619D01*
X20718571Y16757619D01*
X21623333Y15757619D02*
X21051904Y15757619D01*
X21337619Y15757619D02*
X21337619Y16757619D01*
X21242380Y16614761D01*
X21147142Y16519523D01*
X21051904Y16471904D01*
G04 #@! TO.C,J2*
X30666666Y7102619D02*
X30666666Y6388333D01*
X30619047Y6245476D01*
X30523809Y6150238D01*
X30380952Y6102619D01*
X30285714Y6102619D01*
X31095238Y7007380D02*
X31142857Y7055000D01*
X31238095Y7102619D01*
X31476190Y7102619D01*
X31571428Y7055000D01*
X31619047Y7007380D01*
X31666666Y6912142D01*
X31666666Y6816904D01*
X31619047Y6674047D01*
X31047619Y6102619D01*
X31666666Y6102619D01*
G04 #@! TO.C,J1*
X7416666Y14992619D02*
X7416666Y14278333D01*
X7369047Y14135476D01*
X7273809Y14040238D01*
X7130952Y13992619D01*
X7035714Y13992619D01*
X8416666Y13992619D02*
X7845238Y13992619D01*
X8130952Y13992619D02*
X8130952Y14992619D01*
X8035714Y14849761D01*
X7940476Y14754523D01*
X7845238Y14706904D01*
G04 #@! TD*
M02*
